<svg version="1.2" xmlns="http://www.w3.org/2000/svg" viewBox="0 0 300 292" width="300" height="292">
	<title>team_people_icon_176892-svg</title>
	<style>
		.s0 { fill: #fe744f } 
		.s1 { fill: #fcc490 } 
		.s2 { fill: #000000 } 
		.s3 { fill: #e5a25e } 
		.s4 { fill: #ffffff } 
		.s5 { fill: #f798a0 } 
		.s6 { fill: #5fc3b7 } 
		.s7 { fill: #b7e6d4 } 
		.s8 { fill: #31544b } 
		.s9 { fill: #f9e1cd } 
		.s10 { fill: #fcd456 } 
		.s11 { fill: #ffe354 } 
		.s12 { fill: #ffb5a4 } 
		.s13 { fill: #a8815e } 
		.s14 { fill: #7f161a } 
		.s15 { fill: #c17e48 } 
		.s16 { fill: #fef795 } 
	</style>
	<path id="Layer" class="s0" d="m119.7 64.2q-0.4-4.6-0.6-9.2-0.2-4.6-0.3-9.2-0.1-4.6-0.1-9.2 0-4.6 0.1-9.2c0.1-4.4 0.4-9 1.9-12.5 1.5-3.7 4.2-5.3 6.7-6.5 2-0.9 4.2-1.7 6.1 0.1 0.7 0.8 1.3 1.9 2.1 2.2 0.9 0.3 1.8-0.6 2.7-1.3 5.7-4.7 12.5-3.8 18.6-0.7 1.7 0.8 3.5 1.9 5.2 1.5 1-0.2 2-0.9 3.1-1 2.7-0.2 5 4.1 6.3 8.5q0.8 2.7 1.4 5.5 0.6 2.8 1 5.6 0.4 2.8 0.7 5.7 0.2 2.8 0.2 5.7c0.3 7.8 0 15.6-0.4 23.4z"/>
	<path id="Layer" class="s1" d="m172.3 51.2c0-18.3 0-33.2-24.8-33.2-24.9 0-24.9 14.9-24.9 33.2 0 8.3 0.1 15.9 2.4 21.7v19c0 2.3 0.4 4.5 1.3 6.5 0.9 2.1 2.1 4 3.7 5.6 1.6 1.5 3.5 2.8 5.5 3.7 2.1 0.8 4.3 1.3 6.5 1.3h10.3c2.3 0 4.5-0.5 6.6-1.3 2-0.9 3.9-2.2 5.5-3.7 1.6-1.6 2.8-3.5 3.7-5.6 0.8-2 1.3-4.2 1.3-6.5v-17.6c2.9-6 2.9-14.2 2.9-23.1z"/>
	<path id="Layer" class="s2" d="m129.4 53c-0.2 2.1 0.6 4.8 3.1 4.8q0.4 0 0.8-0.1 0.3-0.1 0.6-0.3 0.4-0.2 0.6-0.5 0.2-0.3 0.4-0.6 0.2-0.4 0.2-0.9 0.1-0.4 0.1-0.9 0.1-0.4 0-0.9 0-0.4-0.2-0.9c-0.1-0.7-1.3-0.4-1.1 0.4 0.2 1.1 0.4 3.9-1.6 3.5-1.6-0.3-1.8-2.2-1.7-3.6 0.1-0.7-1.1-0.7-1.2 0z"/>
	<path id="Layer" class="s2" d="m159.4 53.1q0 0.4 0 0.7 0 0.4 0.1 0.8 0.1 0.3 0.3 0.7 0.2 0.3 0.4 0.6 0.2 0.3 0.4 0.4 0.3 0.2 0.5 0.3 0.3 0.1 0.6 0.1 0.3 0 0.6 0c2.1-0.6 1.8-3.1 1.4-4.7q-0.1-0.2-0.3-0.4-0.2-0.1-0.5 0-0.2 0-0.3 0.3-0.1 0.2-0.1 0.4c0.3 0.9 0.8 2.5-0.3 3.1-1.3 0.7-1.6-1.6-1.6-2.3 0-0.8-1.2-0.8-1.2 0z"/>
	<path id="Layer" class="s0" d="m154.8 40.4c0-0.5 0.5-0.9 1-0.9h10.5c0.5 0 0.9 0.4 0.9 0.9v1.3c0 0.5-0.4 1-0.9 1h-10.5c-0.5 0-1-0.5-1-1z"/>
	<path id="Layer" class="s0" d="m126.3 45.2c-0.1-0.5 0.3-1 0.8-1l10.1-1.2c0.5 0 1 0.4 1 0.9l0.1 1.2c0.1 0.5-0.3 1-0.8 1l-10 1.1c-0.5 0.1-1-0.3-1.1-0.8z"/>
	<path id="Layer" class="s2" d="m134.8 66.6c1.9 1.3 4 2.2 6.1 2.7 2.2 0.6 4.5 0.8 6.7 0.6 2.2-0.2 4.4-0.7 6.5-1.6 2-0.9 3.9-2.2 5.6-3.7 0.6-0.5-0.3-1.4-0.9-0.9-1.5 1.5-3.3 2.6-5.2 3.5-2 0.8-4 1.4-6.1 1.5-2.2 0.2-4.3 0-6.3-0.5-2.1-0.6-4-1.4-5.8-2.6-0.6-0.5-1.2 0.6-0.6 1z"/>
	<path id="Layer" class="s0" d="m128.4 18.4q-0.3 1.7-0.4 3.4 0 1.7 0.3 3.4 0.3 1.7 0.9 3.4 0.6 1.6 1.5 3.1c1.1 1.9 3.1 3.8 5.3 3.5q0.6-0.1 1.1-0.4 0.5-0.2 1-0.6 0.5-0.3 0.9-0.8 0.4-0.4 0.7-0.9 0.7-1 1.3-2.2 0.6-1.1 1-2.4 0.4-1.2 0.7-2.4 0.2-1.3 0.3-2.6 0 1.2 0.2 2.4 0.2 1.2 0.5 2.3 0.4 1.2 1 2.3 0.6 1 1.3 2 0.3 0.5 0.8 0.9 0.4 0.5 0.9 0.8 0.5 0.4 1.1 0.6 0.6 0.3 1.2 0.4c2.3 0.3 4.4-1.5 5.3-3.6q0.2-0.8 0.4-1.7 0.2-0.8 0.3-1.6 0.1-0.9 0.1-1.7 0-0.9-0.1-1.8 0.6 1.2 1.4 2.3 0.8 1.1 1.7 2 1 0.9 2.1 1.6 1.1 0.7 2.3 1.2 0.5 0.3 1 0.4 0.5 0.1 1.1 0.2 0.5 0 1-0.1 0.5-0.1 1-0.3c1.6-0.9 1.9-3 1.8-4.8q-0.2-1.7-0.7-3.4-0.5-1.6-1.3-3.1-0.8-1.5-1.8-2.8-1.1-1.3-2.4-2.4z"/>
	<path id="Layer" class="s2" d="m137.4 88.1q0.1 0 0.2 0 0 0 0.1-0.1 0 0 0.1 0 0 0 0.1-0.1 0.1-0.1 0.1-0.3 0.1-0.2 0-0.3-0.1-0.2-0.2-0.3-0.2-0.1-0.4-0.1-0.1 0-0.2 0-0.1 0.1-0.2 0.2-0.1 0-0.1 0.2-0.1 0.1-0.1 0.2 0 0.1 0.1 0.2 0 0.1 0.1 0.2 0.1 0.1 0.2 0.1 0.1 0.1 0.2 0.1z"/>
	<path id="Layer" class="s3" d="m86.5 131.8c-3.4 11.3-4.3 23.4-1.1 34.7 3.1 11.3 10.3 21.7 20.5 27.4 7.6 4.2 16.3 5.8 24.9 5.7 16.8 0 33-5.9 49.7-7.8 6.3-0.7 12.8-0.9 18.4-3.8 8.5-4.4 13-14.3 13.5-23.9 0.5-9.5 11-49.3-35.8-73.2-16.8-8.6-37.7-8.5-54.8-0.4-4.2 2-8.2 4.4-11.9 7.2-3.7 2.8-7.1 6-10.2 9.5-3 3.6-5.7 7.4-7.9 11.5-2.2 4.1-4 8.4-5.3 12.9z"/>
	<path id="Layer" class="s0" d="m140.3 46.7c3.2-0.2 9.6-0.7 9.6-0.7 0.3 1.8 0.8 3.6 1.2 5.4q0.2 0.7 0.3 1.4 0.1 0.7 0.1 1.4 0.1 0.7 0.1 1.4-0.1 0.7-0.1 1.4-0.1 0.6-0.4 1.3-0.2 0.7-0.5 1.3-0.4 0.6-0.9 1.1-0.4 0.5-1 0.9-0.6 0.4-1.2 0.6-0.7 0.2-1.4 0.2-0.7 0-1.4-0.2-0.6-0.2-1.2-0.6c-1.4-1.2-1.8-3.3-2-5.1z"/>
	<path id="Layer" class="s2" d="m107.7 138l-1 1.7-1.2-2.4c-0.4-0.7-1.4-0.1-1.1 0.6l1.6 3q0.3 14.7 0.6 29.3l0.1 8.4q0 0.2 0.2 0.4 0.2 0.1 0.4 0.2 0.3-0.1 0.4-0.2 0.2-0.2 0.2-0.4-0.3-14.8-0.6-29.5l-0.1-7.9 1.6-2.6q0.1-0.2 0-0.5 0-0.2-0.3-0.3-0.2-0.2-0.4-0.1-0.3 0.1-0.4 0.3z"/>
	<path id="Layer" fill-rule="evenodd" class="s4" d="m174.7 129.4q0.1 1.8 0.2 3.7 0.1 1.9 0.1 3.8 0 1.9 0 3.8 0 0.2-0.1 0.3 0 0.2-0.1 0.3-0.1 0.1-0.3 0.2-0.1 0.1-0.2 0.2-1.2 0.3-2.4 0.5-1.1 0.2-2.3 0.3-1.2 0.2-2.4 0.2-1.2 0.1-2.3 0c-10.8-0.1-21.9-4.2-32.5-1.1q0 0.1-0.1 0.2 0 0.1-0.1 0.2-0.1 0.1-0.2 0.1-0.1 0.1-0.2 0.1-0.2 0.1-0.4 0-0.2 0-0.4-0.1-0.1-0.1-0.3-0.2-0.1-0.2-0.1-0.3-0.1-0.2-0.2-0.3-0.1-0.1-0.1-0.3 0-0.1 0-0.3 0-0.1 0.1-0.2-0.2-1.3-0.4-2.7-0.2-1.8-0.3-3.7-0.1-1.9-0.2-3.9 0-1.9 0-3.8 0.1-1.9 0.2-3.8 0.3-3.7 1-7.3c0.2-1.7 0.6-4 2.4-4.8 1.8-0.8 3.3 0.5 3.8 2.1q0.1 0.4 0.2 0.7 0.1 0.3 0.1 0.6 0.1 0.3 0.1 0.7 0 0.3 0 0.6-0.1 0.3 0 0.6 0 0.3 0 0.6 0.1 0.3 0.2 0.6 0.1 0.3 0.3 0.6c0.5 0.5 1.2 0.2 1.7-0.2q0.3-0.3 0.5-0.6 0.2-0.3 0.4-0.7 0.1-0.3 0.3-0.7 0.1-0.4 0.1-0.7c0.6-1.9 1.6-4.1 3.8-4.5 1.8-0.3 3 1 3.6 2.6 0.5 1.1 0.8 3 2.3 3.2 2 0.2 3.2-2 3.9-3.5 0.9-1.9 1.7-3.8 3.6-4.9 0.7-0.4 2.1-1 2.8-0.4q0.3 0.3 0.6 0.6 0.2 0.3 0.4 0.7 0.2 0.3 0.3 0.7 0.2 0.4 0.3 0.8c0.5 1.5 0.8 4.1 2.5 4.8q0.3 0.1 0.5 0.2 0.3 0 0.5-0.1 0.3-0.1 0.5-0.2 0.2-0.2 0.3-0.4c0.4-1 0.2-2 0.6-2.9 0.8-1.8 3.4-2.7 4.3-0.5q0.1 0.4 0.2 0.8 0.2 0.5 0.3 0.9 0.1 0.4 0.2 0.8 0.1 0.5 0.1 0.9 0.4 1.9 0.8 3.8 0.7 3.7 1.1 7.5 0.2 1.9 0.4 3.8zm-1.7 10.5q0-1.4 0-2.8 0-1.4-0.1-2.9 0-1.4-0.1-2.8-0.1-1.4-0.2-2.8-0.5-5.4-1.5-10.6-0.5-2.7-1.1-5.3 0-0.1 0-0.3-0.1-0.1-0.1-0.3 0-0.1-0.1-0.2 0-0.2-0.1-0.3 0 0-0.1 0 0 0 0 0 0 0.1-0.1 0.1 0 0 0 0-0.2 0.1-0.3 0.3-0.1 0.2-0.2 0.4 0 0.2-0.1 0.4 0 0.2 0 0.4c-0.1 1.3-0.4 2.7-1.8 3.4q-0.4 0.2-0.9 0.3-0.5 0.1-1 0-0.5 0-1-0.2-0.5-0.2-0.9-0.5-0.4-0.3-0.7-0.7-0.4-0.4-0.7-0.8-0.2-0.5-0.5-1-0.2-0.4-0.3-0.9-0.1-0.5-0.2-1-0.2-0.5-0.4-1-0.1-0.4-0.3-0.9-0.2-0.4-0.5-0.9c-2.5 0.6-3.3 4.2-4.4 6.1-1.3 2-4.1 3.9-6.5 2.4-1.7-1.1-1.8-3.1-2.8-4.7q-0.1-0.2-0.3-0.4-0.3-0.2-0.6-0.2-0.3 0-0.5 0.1-0.3 0.1-0.5 0.3c-1 0.8-1.2 2.2-1.5 3.3q-0.1 0.5-0.3 0.9-0.2 0.4-0.4 0.8-0.3 0.4-0.6 0.8-0.3 0.3-0.6 0.6-0.3 0.3-0.7 0.5-0.4 0.2-0.8 0.3-0.4 0.1-0.9 0.1-0.4 0-0.8-0.2c-2.4-0.8-2-3.5-2.3-5.6 0-0.5-0.3-1.7-0.9-1.9-0.8-0.1-1.2 1.2-1.4 1.8q-0.2 1.1-0.4 2.1-0.2 1.1-0.3 2.2-0.2 1.2-0.3 2.3-0.1 1.1-0.2 2.2-0.1 2.1-0.2 4.2 0 2.1 0.1 4.2 0 2.1 0.2 4.2 0.2 2.1 0.5 4.1 1-0.2 2-0.4 0.9-0.2 2-0.4 1-0.1 2-0.2 1 0 2 0c10.9-0.2 21.9 4 32.7 1.4z"/>
	<path id="Layer" fill-rule="evenodd" class="s5" d="m51.6 179.8q0 5.2-0.6 10.4-0.6 5.2-1.7 10.4-1.1 5.1-2.8 10.1c-3.5 10.3-8.9 21.1-18.2 27.3q-0.5 0.6-1.1 1.2-0.6 0.5-1.3 1-0.6 0.5-1.3 0.9-0.7 0.4-1.5 0.7-0.4 0.2-0.8 0.3-0.4 0.2-0.9 0.3-0.4 0-0.8 0.1-0.5 0-0.9 0-0.6 0-1.2 0-0.5-0.1-1.1-0.2-0.5-0.2-1-0.4-0.5-0.2-1-0.5c-4.8-2.4-7.2-7.5-8.3-11.4q-0.5-1.8-0.9-3.6-0.4-1.9-0.6-3.7-0.3-1.9-0.4-3.7-0.1-1.9-0.1-3.8c-0.3-10.3-0.2-22 4.9-31.8 1.9-3.8 6.2-10 12.9-10h0.1q0.9 0 1.8 0.2 1 0.2 1.8 0.6 0.9 0.4 1.6 1 0.8 0.5 1.4 1.2 0.9-1 1.8-1.9 0.9-1 1.9-2 1-0.9 2-1.8 1-0.9 2-1.8 0.8-0.7 1.7-1.4 0.9-0.7 1.8-1.3 0.9-0.7 1.8-1.3 0.9-0.7 1.8-1.3c1.1-0.7 2.3-1.7 3.7-1.5q0.4 0 0.8 0.2 0.4 0.2 0.7 0.5 0.3 0.3 0.6 0.7 0.2 0.3 0.2 0.8 0.4 2.5 0.7 5 0.5 5.2 0.5 10.5zm-18.6 47.1q0.3-1 0.5-2 0.3-1.1 0.5-2.1 0.2-1.1 0.4-2.1 0.2-1.1 0.3-2.1 0.1-1.3 0.3-2.5 0.1-1.2 0.1-2.4 0.1-1.2 0.1-2.5 0.1-1.2 0-2.4 0-2.5-0.2-5-0.1-2.4-0.4-4.9-0.3-2.5-0.7-4.9-0.4-2.4-0.9-4.9-0.4-2.3-1-4.5c-0.8-3.7-3.2-9.8-9-9.8h-0.1c-6 0-9.9 5.8-11.6 9.2-4.9 9.5-5.1 21.1-4.8 31.2q0 1.8 0.1 3.6 0.1 1.8 0.4 3.7 0.2 1.8 0.6 3.6 0.3 1.8 0.8 3.5c1.1 3.6 3.3 8.4 7.6 10.6q0.8 0.4 1.6 0.6 0.8 0.3 1.7 0.3 0.8 0.1 1.7-0.1 0.8-0.1 1.6-0.5c4.7-1.9 8.7-8.4 10.4-13.6zm16.3-32.5q0.7-5 1-9.9 0.2-5 0-10-0.3-5-1-9.9 0-0.2-0.1-0.4-0.1-0.2-0.3-0.4-0.1-0.2-0.3-0.3-0.2-0.1-0.4-0.2-0.2 0-0.4 0-0.3 0-0.5 0-0.2 0.1-0.4 0.2-0.2 0.1-0.3 0.2-2.3 1.4-4.4 3-2.2 1.5-4.2 3.3-2 1.7-3.9 3.5-1.9 1.9-3.7 3.9 0.6 0.8 1 1.6 0.5 0.8 0.9 1.7 0.3 0.8 0.6 1.7 0.3 0.9 0.5 1.8 0.5 2.3 1 4.6 0.5 2.5 0.9 5 0.4 2.5 0.7 5 0.3 2.4 0.4 5 0.2 2.5 0.3 5 0 1.2-0.1 2.5 0 1.2 0 2.5-0.1 1.2-0.2 2.5-0.1 1.2-0.3 2.4-0.1 1.1-0.3 2.2-0.2 1.1-0.4 2.2-0.2 1.1-0.5 2.2-0.3 1-0.6 2.1-0.3 0.9-0.7 1.8-0.3 0.9-0.7 1.8-0.4 0.8-0.9 1.7-0.5 0.8-1 1.6c8.6-7.7 13.3-19.2 16.2-30.2q1.3-4.8 2.1-9.7z"/>
	<path id="Layer" fill-rule="evenodd" class="s6" d="m291.5 175.5q-0.7 1.2-1.6 2.4-0.9 1.1-1.9 2.2-1 1-2.2 1.8-1.2 0.9-2.4 1.6-1.6 0.7-3.2 1.1-1.6 0.5-3.2 0.7-1.7 0.1-3.4 0.1-1.6-0.1-3.2-0.5-1.3-0.2-2.6-0.5-1.2-0.3-2.5-0.7-1.2-0.4-2.4-0.9-1.2-0.4-2.4-1 0 1.1-0.1 2.3-0.1 1.1-0.2 2.2-0.1 1.2-0.3 2.3-0.2 1.1-0.4 2.2c-1.4 7.9-4.9 15.6-10.9 21-6.6 5.9-15.5 8.3-24.1 10.2-8.6 1.9-17.5 3.4-26 1q-3.1-1-5.9-2.7-2.8-1.7-5-4.1-2.2-2.5-3.7-5.4-1.4-2.9-2.1-6.1c-2.6-15.4-5.4-31.2 0.3-45.7q2.2-5.4 5.4-10.3 3.1-5 7.1-9.3 4-4.3 8.7-7.7 4.7-3.5 9.9-6.1c5.8-2.8 12.2-4.7 18.6-3.9q1.5 0.2 3 0.6 1.6 0.5 3 1.1 1.5 0.5 2.8 1.3 1.4 0.8 2.6 1.7 0.9 0.4 1.7 0.8c4.4 2.3 8.3 5.5 12.2 8.5q0 0 0 0 0.1 0 0.1 0 0 0 0 0 0 0 0 0 0 0 0 0 0 0 0 0.1 0 0 0 0 0 0 0.1 0 1.5 1.1 2.9 2.4 1.5 1.3 2.8 2.7 1.3 1.4 2.4 3 1.2 1.5 2.2 3.1-0.3-1.8-0.6-3.7c-1-5.1-1.9-10.2-2.8-15.3-0.7-4.2-1.1-9 2.1-12.4 2.5-2.6 6.6-2.9 9.9-1.8 3.9 1.4 6.5 4.6 8.4 8q0.8 1.6 1.5 3.1 0.7 1.6 1.3 3.2 0.7 1.5 1.3 3.2 0.6 1.6 1.1 3.2 0.6 1.7 1.2 3.5 0.5 1.7 1 3.5 0.5 1.8 0.9 3.6 0.4 1.8 0.8 3.6c1.7 8.8 2.4 18.7-2.2 26.8zm-3 2.2q0.9-1.1 1.6-2.3 0.8-1.2 1.3-2.5 0.6-1.3 1-2.7 0.5-1.6 0.8-3.3 0.3-1.6 0.5-3.3 0.1-1.7 0.1-3.4 0-1.7-0.2-3.4-0.1-1.7-0.4-3.4-0.2-1.8-0.5-3.5-0.3-1.7-0.7-3.4-0.4-1.7-0.8-3.4-0.5-1.6-1-3.3-0.5-1.6-1-3.3-0.6-1.6-1.1-3.2-0.6-1.7-1.3-3.3c-1.4-3.8-2.9-7.8-5.5-11q-0.8-1.1-1.9-2-1-0.8-2.3-1.4-1.2-0.6-2.5-0.9-1.4-0.3-2.8-0.3-0.6 0-1.2 0.2-0.7 0.1-1.3 0.4-0.6 0.2-1.1 0.6-0.5 0.4-1 0.8-0.5 0.6-0.9 1.2-0.4 0.6-0.7 1.3-0.3 0.7-0.5 1.5-0.1 0.7-0.2 1.4 0 0.9 0 1.8 0 0.9 0.1 1.8 0.1 0.9 0.2 1.7 0.1 0.9 0.3 1.8 0.7 3.6 1.4 7.2l2.6 14.4c0.1 0.6-0.8 1.2-1.1 0.5-2.6-5.8-7-10.5-12-14.4q-1-0.7-2-1.5-0.9-0.7-1.7-1.4-0.9-0.7-1.9-1.3-0.9-0.7-1.8-1.3-0.9-0.7-1.9-1.3 1 1 1.9 2.1 0.9 1.1 1.7 2.2 0.8 1.1 1.5 2.3 0.7 1.2 1.4 2.4c4.3 8.6 5.6 18.4 6.4 28q0.1 1.7 0.2 3.4 0.1 1.7 0.2 3.4 0.1 1.7 0.1 3.4 0 1.7 0 3.5 1.3 0.5 2.6 1 1.4 0.7 3 1.2 1.5 0.4 3.1 0.8 1.6 0.3 3.2 0.5 1.6 0.1 3.2 0.1 1.5 0 3-0.3 1.5-0.3 2.9-0.8 1.4-0.6 2.7-1.4 1.3-0.8 2.4-1.9 1-0.9 1.9-2z"/>
	<path id="Layer" class="s7" d="m225.6 219.5c1-7.7-1.6-15.6-5.1-22.5-4.7-9.3-13.5-16-22.8-20.8-20.9-10.9-46.4-13.7-68.5-5.3-22.1 8.4-42.4 28.3-43.3 51.8-0.4 9.1 21.5 55 34.9 70.8h78.4c7.3-9.3 22.8-44.6 26.4-74z"/>
	<path id="Layer" class="s1" d="m177.6 141.2q-0.5-0.2-1-0.3-0.5-0.1-1.1-0.2-0.5-0.1-1.1-0.1-0.5 0-1 0.1v-1.8c-0.1-2.2-0.5-4.4-1.4-6.5-0.8-2.1-2.1-3.9-3.7-5.5-1.5-1.6-3.4-2.9-5.5-3.7-2-0.9-4.2-1.3-6.5-1.3h-7.6c-2.2 0-4.4 0.4-6.5 1.3-2.1 0.8-3.9 2.1-5.5 3.7-1.6 1.6-2.9 3.4-3.7 5.5-0.9 2.1-1.3 4.3-1.3 6.5v3.7-1.8q-0.7-0.1-1.4-0.2-0.7 0-1.4 0.1-0.7 0-1.4 0.1-0.7 0.2-1.3 0.4c-0.9 0.2-1.7 0.7-2.3 1.5-0.5 0.7-0.8 1.6-0.7 2.5 0 1 0.4 1.8 1 2.5 0.6 0.7 1.5 1.1 2.4 1.3q0.6 0.1 1.3 0.2 0.6 0 1.2 0 0.7 0 1.3 0 0.6-0.1 1.3-0.2v1.5q0 1.1 0.1 2.2 0.2 1.2 0.5 2.3 0.3 1.1 0.8 2.1 0.4 1.1 1 2.1-0.1 3.9-0.1 7.8-0.1 0.4-0.1 0.7 0.1 0.3 0.1 0.7 0.1 0.3 0.3 0.6 0.1 0.3 0.3 0.6 0.3 0.2 0.6 0.4 0.3 0.2 0.6 0.4 0.3 0.1 0.6 0.2 0.4 0.2 0.7 0.2 4 1.1 8.1 1.6 4.1 0.5 8.2 0.5 4.1-0.1 8.1-0.6 4.1-0.6 8.1-1.7 0.3-0.1 0.7-0.2 0.3-0.1 0.6-0.3 0.3-0.2 0.6-0.4 0.3-0.2 0.6-0.5 0.1-0.3 0.2-0.6 0.1-0.2 0.1-0.5 0-0.3 0-0.6-0.1-0.3-0.1-0.6-0.7-3.9-1.4-7.7 0.6-1 1.1-2 0.4-1.1 0.7-2.2 0.3-1.1 0.5-2.2 0.2-1.2 0.2-2.3v-1.4q0.4 0.1 0.9 0.1 0.5 0.1 1 0 0.5 0 1-0.1 0.4 0 0.9-0.1 0.7-0.2 1.2-0.5 0.6-0.3 1.1-0.8 0.4-0.5 0.7-1 0.3-0.6 0.4-1.3 0.1-0.7-0.2-1.3-0.2-0.7-0.6-1.3-0.4-0.6-0.9-1-0.6-0.4-1.3-0.6z"/>
	<path id="Layer" class="s4" d="m182.9 168.7q-1.3-0.2-2.5-0.5-1.3-0.3-2.5-0.7-1.2-0.4-2.4-0.9-1.2-0.4-2.4-1-0.1-0.1-0.2-0.1-0.1 0-0.2 0-0.1 0-0.1 0.1-0.1 0-0.2 0.1-1.9 1.6-4.1 2.9-2.2 1.2-4.6 2.1-2.4 0.8-4.9 1.2-2.5 0.4-5.1 0.4 0-0.1-0.1-0.1 0-0.1-0.1-0.1-0.1 0-0.2 0-0.1 0-0.1 0-2.8 0.5-5.7 0.4-2.8 0-5.6-0.6-2.8-0.6-5.5-1.6-2.6-1.1-5-2.6-0.1-0.1-0.1-0.1 0 0 0 0-0.1 0-0.1 0 0 0-0.1 0 0 0 0 0-0.1 0-0.1 0-0.1 0-0.1 0 0 0-0.1 0-0.6 0.2-1.1 0.5-0.6 0.3-1.1 0.6-0.6 0.3-1.1 0.6-0.5 0.4-0.9 0.8-1.3 1-2.6 2 0 0.1-0.1 0.2 0 0.1 0 0.2 0 0.1 0 0.2 0 0.1 0 0.2c1.6 3.1 4.5 5.1 7.6 6.5 1.7 0.8 3.5 1.4 5.3 2.1q1.3 0.5 2.6 1.2c0.9 0.4 1.8 1 2.7 1.3q0.9 0.4 1.8 0.4 0.9 0 1.8-0.3 0.9-0.3 1.6-0.9 0.7-0.6 1.2-1.4 1.4-2.3 2.7-4.5l2.1-3.5q2.7 3 5.6 5.8 0.4 0.5 0.9 1 0.5 0.4 1 0.8 0.6 0.4 1.2 0.7 0.6 0.2 1.3 0.4 0.6 0.2 1.3 0.2 0.6 0 1.3-0.1 0.6-0.1 1.2-0.3 0.7-0.2 1.2-0.6c5.5-3.3 10.8-7 14.9-12 0.2-0.3 0.2-0.9-0.3-1z"/>
	<path id="Layer" fill-rule="evenodd" class="s8" d="m266.8 107.2q-0.2 0.7-0.5 1.5-0.2 0.8-0.5 1.5-0.3 0.8-0.6 1.5-0.3 0.8-0.6 1.5-0.3 0.8-0.6 1.5-0.4 0.7-0.8 1.4-0.4 0.7-0.8 1.4-0.4 0.7-0.9 1.4-0.4 0.5-0.9 1-0.5 0.5-1 0.8-0.6 0.4-1.2 0.6-0.7 0.3-1.3 0.4-0.4 0-0.7 0.1-0.4 0-0.7 0-0.4 0-0.7-0.1-0.3-0.1-0.7-0.1-0.3-0.2-0.6-0.3-0.4-0.1-0.7-0.2-0.4-0.1-0.7-0.2-0.4-0.1-0.7-0.1-0.4-0.1-0.7-0.1-0.4 0-0.8 0.1-0.3 0-0.7 0.1-0.3 0-0.7 0.2-0.3 0.1-0.6 0.2-0.4 0.2-0.7 0.4-0.3 0.1-0.6 0.3-0.3 0.2-0.6 0.4-0.6 0.4-1.2 0.5-0.6 0.1-1.3 0.1-0.6-0.1-1.2-0.4-0.5-0.3-1-0.7c-0.9-0.8-1.7-2.4-3-2.6-1.2-0.2-2.4 1-3.3 1.7q-0.4 0.4-0.9 0.8-0.4 0.3-1 0.6-0.5 0.2-1.1 0.4-0.5 0.1-1.1 0.2c-1.7 0-3.2-0.9-4.6-1.7q-0.2-0.2-0.4-0.3-0.3-0.1-0.5-0.2-0.3-0.1-0.5-0.2-0.3-0.1-0.6-0.1-0.2-0.1-0.5 0-0.3 0-0.5 0.1-0.3 0.1-0.5 0.2-0.2 0.1-0.4 0.3c-1.4 0.9-2.8 2-4.6 1.3q-0.2-0.1-0.5-0.3-0.2-0.1-0.4-0.3-0.2-0.2-0.4-0.4-0.2-0.2-0.4-0.4-0.1-0.2-0.3-0.4-0.2-0.2-0.3-0.3-0.2-0.2-0.4-0.4-0.2-0.1-0.4-0.3c-1.1-0.6-2.4 1.1-3.3 1.5q-0.3 0.2-0.5 0.2-0.3 0.1-0.6 0.2-0.3 0-0.6 0-0.3 0-0.6-0.1-0.2-0.1-0.5-0.3-0.2-0.1-0.5-0.3-0.2-0.2-0.4-0.4-0.3-0.2-0.5-0.4c-0.3-0.4-0.7-0.7-1.1-0.4q-0.2 0.1-0.4 0.3-0.1 0.2-0.3 0.3-0.1 0.2-0.2 0.4-0.1 0.1-0.3 0.3c-1.1 1.4-2.5 2.3-4.3 1.5-0.9-0.4-1.5-1.2-2.4-1.7-0.9-0.5-1.8 0.3-2.8 0.5q-0.6 0.2-1.3 0.2-0.7 0-1.4-0.2-0.6-0.1-1.2-0.5-0.6-0.3-1.1-0.8-0.4-0.4-0.7-1-0.3-0.5-0.4-1.1-0.2-0.6-0.2-1.2 0.1-0.6 0.2-1.2c0.9-6.1 1.7-12.3 2.4-18.5 1-8.9 1.7-17.9 2-27q0.1-1.7 0.2-3.4 0.2-1.7 0.4-3.5 0.3-1.7 0.6-3.4 0.4-1.7 0.8-3.3c2.7-9.7 9-18.8 19.1-21.6q1.8-0.5 3.7-0.6 1.9-0.2 3.8 0 1.9 0.2 3.8 0.8 1.8 0.5 3.5 1.4c4.3 2.3 7.7 5.9 10.9 9.6q0.3-0.4 0.7-0.8 0.3-0.3 0.8-0.6 0.4-0.3 0.8-0.5 0.5-0.3 1-0.5c3.9-1.4 8.2 0.5 11.2 3q1 0.9 1.9 1.9 0.9 1 1.7 2.1 0.8 1.1 1.5 2.3 0.6 1.2 1.1 2.5 0.6 1.3 1 2.6 0.5 1.3 1 2.7 0.4 1.3 0.8 2.7 0.3 1.3 0.6 2.7c1.2 4.6 2.2 9.3 2.9 14 1.4 9 1.6 18.3-0.9 27.2zm-1.7-31q-1.3-6.4-3-12.7-0.3-1.3-0.7-2.5-0.4-1.3-0.8-2.5-0.5-1.3-1.1-2.5-0.5-1.2-1.1-2.3-0.6-1.2-1.3-2.2-0.8-1.1-1.7-2-0.9-1-1.9-1.8-1-0.7-2.1-1.4c-3.2-1.7-7.9-2-9.7 1.8q-0.2 0.2-0.3 0.3-0.2 0.1-0.5 0.1-0.2 0.1-0.4 0-0.2-0.1-0.4-0.2c-3.6-4.2-7.5-8.6-12.6-10.9q-1.7-0.7-3.4-1-1.8-0.4-3.6-0.4-1.8 0-3.5 0.3-1.8 0.3-3.5 1-1.6 0.7-3.2 1.6-1.5 0.9-2.9 2-1.4 1.2-2.6 2.5-1.2 1.4-2.2 2.9c-4.6 6.9-6.4 15.4-6.7 23.6q-0.1 3.4-0.3 6.8c-0.4 8.3-1.2 16.5-2.2 24.6q-0.6 4.8-1.2 9.5-0.3 1.9-0.6 3.8c-0.1 1-0.5 2.3 0 3.3 0.8 1.6 2.6 1.7 4.1 1.2 1-0.4 1.8-0.8 2.9-0.5q0.3 0.1 0.6 0.3 0.3 0.2 0.6 0.4 0.3 0.1 0.6 0.4 0.3 0.2 0.6 0.4c0.5 0.4 1.2 0.9 1.8 0.4q0.2-0.2 0.4-0.3 0.1-0.2 0.3-0.4 0.1-0.2 0.3-0.4 0.1-0.1 0.3-0.3c0.8-1.2 2-2.1 3.5-1.4q0.3 0.1 0.5 0.3 0.2 0.1 0.5 0.3 0.2 0.2 0.4 0.3 0.2 0.2 0.4 0.4 0.1 0.2 0.2 0.3 0.2 0.1 0.3 0.1 0.2 0.1 0.4 0.1 0.2-0.1 0.3-0.2c1.4-0.6 2.2-1.8 3.8-1.8 1.6 0 2.5 1.2 3.4 2.2q0.1 0.2 0.3 0.3 0.2 0.2 0.3 0.3 0.2 0.1 0.4 0.2 0.2 0.1 0.4 0.1 0.3 0 0.5-0.1 0.3-0.1 0.5-0.2 0.2-0.1 0.5-0.3 0.2-0.1 0.4-0.3 0.4-0.4 0.9-0.7 0.6-0.2 1.2-0.4 0.5-0.1 1.1-0.1 0.6 0 1.2 0.1c1.5 0.5 2.7 1.5 4.2 2.1q0.4 0.2 0.9 0.2 0.5 0.1 1 0 0.4-0.1 0.9-0.3 0.4-0.3 0.8-0.6 0.4-0.3 0.8-0.7 0.4-0.3 0.9-0.6 0.4-0.3 0.9-0.6 0.4-0.3 0.9-0.6 0.5-0.2 1.1-0.2 0.5-0.1 1 0 0.6 0.1 1 0.4 0.5 0.2 0.9 0.6c1 0.7 1.7 2.2 2.9 2.6 0.7 0.3 1.5-0.2 2.1-0.6q0.3-0.2 0.6-0.4 0.3-0.2 0.7-0.3 0.3-0.2 0.6-0.3 0.4-0.2 0.7-0.3 0.7-0.1 1.4-0.2 0.7-0.1 1.5-0.1 0.7 0.1 1.4 0.2 0.7 0.2 1.4 0.4 0.5 0.3 1.1 0.4 0.6 0.1 1.2 0 0.6 0 1.2-0.3 0.6-0.2 1.1-0.5c1.5-1 2.4-3 3.2-4.6q0.7-1.4 1.3-2.8 0.5-1.4 1-2.9 0.5-1.5 0.9-3 0.4-1.5 0.7-3c1.7-8.7 0.9-17.7-0.7-26.4z"/>
	<path id="Layer" class="s9" d="m253.1 72.9q-0.3 0-0.7 0.1-0.3 0.1-0.6 0.3-0.3 0.1-0.6 0.4-0.2 0.2-0.4 0.5v-6c-0.1-1.8-0.4-3.6-0.9-5.4-0.6-1.7-1.5-3.3-2.6-4.8-1.1-1.5-2.4-2.7-3.9-3.8-1.5-1-3.2-1.8-4.9-2.3q-0.1 0.3-0.3 0.6-0.2 0.3-0.4 0.5-0.3 0.3-0.5 0.5-0.3 0.2-0.6 0.4-0.5 0.2-1 0.4-0.4 0.2-0.9 0.4-0.5 0.2-1 0.3-0.5 0.1-1.1 0.2-3.3 0.9-6.4 2.4-3.1 1.6-5.8 3.7-2.7 2.2-4.9 4.9-2.2 2.7-3.7 5.8v16.9q0 2.6 0.8 5 0.7 2.5 2.2 4.6 1.4 2.2 3.5 3.8 2 1.5 4.4 2.5 0.3 2.4 0.5 4.8 0.2 2.4 0.2 4.8 0.1 2.4 0 4.8-0.1 2.4-0.4 4.8c-0.2 2.2-0.4 4.7 1.1 6.3 1.3 1.3 3.2 1.6 5 1.8 2.1 0.2 4.5 0.3 6.1-1.1 1.4-1.2 1.7-3.1 1.9-4.9q1.5-10.7 2.9-21.4 2.3-1 4.3-2.6 2-1.6 3.4-3.7 1.4-2.1 2.2-4.5 0.7-2.5 0.8-5v-1.7q0.2 0.2 0.4 0.5 0.3 0.2 0.6 0.4 0.3 0.1 0.6 0.2 0.4 0.1 0.7 0.1c2.4 0 4.3-3.4 4.3-7.7 0-4.3-1.9-7.8-4.3-7.8z"/>
	<path id="Layer" class="s8" d="m215.3 74.2q0.6-0.5 1.2-0.9 0.6-0.3 1.3-0.6 0.7-0.3 1.5-0.5 0.7-0.1 1.5-0.2c0.7 0 0.7-1.2 0-1.2q-0.9 0.1-1.8 0.3-0.8 0.2-1.6 0.5-0.8 0.3-1.6 0.7-0.7 0.5-1.4 1c-0.6 0.5 0.3 1.4 0.9 0.9z"/>
	<path id="Layer" class="s5" d="m106.2 284.2c0-30.9 0-62-3.9-92.5-1-8.6-2.5-17.1-5.2-25-2.7-7.8-6.7-15-12.2-19.2q-1.8-1.5-3.9-2.5-2.2-1-4.4-1.7-2.3-0.6-4.6-0.7-2.4-0.2-4.7 0.1-2.5 0.3-4.9 0.9-2.4 0.7-4.7 1.8-2.2 1.1-4.2 2.6-2 1.5-3.7 3.3c-9.2 9.9-12.3 27.2-13.7 43.3-2.9 32.7-1.6 67.1 2 98.9h67c1.1-2.7 1.1-6.1 1.1-9.3z"/>
	<path id="Layer" class="s10" d="m290.8 258.4c0-35.9-28.4-64.9-63.3-64.9-35 0-63.4 29-63.4 64.9q0 4.6 0.7 9.2 0.6 4.6 1.9 9 1.3 4.5 3.2 8.7 1.9 4.3 4.3 8.2h106.5q2.4-3.9 4.3-8.2 1.9-4.2 3.2-8.7 1.3-4.4 1.9-9 0.7-4.6 0.7-9.2z"/>
	<path id="Layer" class="s11" d="m99.6 148c-1.6-17.2-0.9-57-23.9-64.8q-1.5-0.6-3-1-1.6-0.4-3.1-0.7-1.6-0.3-3.2-0.4-1.6-0.1-3.2-0.1 0.3-0.7 0.7-1.4 0.4-0.7 0.9-1.3 0.4-0.7 0.9-1.3 0.5-0.6 1.1-1.1c0.5-0.6-0.4-1.4-0.9-0.9q-0.6 0.6-1.1 1.2-0.5 0.6-0.9 1.3-0.5 0.6-0.9 1.3-0.4 0.7-0.8 1.4 0-0.5 0.1-1 0-0.5 0-1 0.1-0.5 0.1-0.9 0.1-0.5 0.2-1c0.1-0.8-1.1-1.1-1.2-0.3q-0.1 0.5-0.2 1 0 0.5-0.1 1.1 0 0.5 0 1-0.1 0.6-0.1 1.1-1.4-2.2-3-4.2c-0.5-0.6-1.4 0.2-0.9 0.8q1.7 2.2 3.2 4.5-1.1 0.2-2.3 0.5-1.1 0.3-2.2 0.7-1.1 0.4-2.2 0.8-1.1 0.5-2.2 1c-13.1 6.1-18.6 25.5-18.4 33.2 0.9 28.4 0.2 51.5 1 79.9 0.3 2.5 0.3 5.4 1.6 6.4 2.4 1.7 3.8-3 4.5-3.9q0.2-0.2 0.4-0.3 0.3-0.1 0.6-0.1 0.3 0.1 0.5 0.2 0.2 0.2 0.4 0.4 0.1 0.4 0.4 0.8 0.3 0.3 0.7 0.5 0.3 0.3 0.8 0.4 0.4 0.1 0.8 0.1c1.3-0.1 1.5-1.1 1.7-2.5q0.1-0.4 0.3-0.6 0.2-0.3 0.5-0.4 0.3 0 0.7 0.1 0.3 0.1 0.5 0.3 0.2 0.3 0.4 0.5 0.3 0.2 0.5 0.4 0.3 0.2 0.6 0.3 0.3 0.1 0.7 0.1 0.5-0.1 1-0.3 0.5-0.3 0.9-0.6 0.4-0.4 0.7-0.9 0.3-0.5 0.5-1 0.1-0.5 0.2-1.1 0.1-0.5 0.2-1.1 0-0.5 0-1.1 0-0.5-0.1-1.1-0.2-4.8-0.2-9.6 0-4.9 0.2-9.7 0.2-4.8 0.6-9.6 0.3-4.9 0.9-9.7c0.6-4.9 2.1-10.9 7.8-11.3q1 0 2 0.2 0.9 0.2 1.8 0.6 0.9 0.4 1.6 1 0.8 0.6 1.4 1.4c6.3 7.3 8 17 8.5 26.5 0.5 8.7 0 17.6 1.8 26.2q0.1 0.4 0.3 0.8 0.2 0.4 0.5 0.7 0.3 0.3 0.7 0.5 0.4 0.2 0.8 0.3c2.1 0.3 2.5-2.3 4.1-2.6 2.2-0.4 3.3 3.8 5.4 3.1 2.2-0.6 1.4-5.2 3.6-5.1 1 0.1 1.5 1.2 2 2.1 0.4 0.9 1.5 1.8 2.3 1.2 0.7-17.3 1.2-34.7-0.5-51.9z"/>
	<path id="Layer" class="s8" d="m238.2 69.5q1-0.2 2.1-0.2 1.1 0 2.1 0.3 1.1 0.3 2 0.8 0.9 0.5 1.7 1.3c0.6 0.5 1.5-0.3 0.9-0.9q-0.9-0.8-2-1.4-1.1-0.6-2.3-0.9-1.2-0.4-2.4-0.4-1.3 0-2.5 0.2c-0.7 0.2-0.4 1.4 0.4 1.2z"/>
	<path id="Layer" class="s2" d="m219.2 84.4c-1.1 0-1.9-0.8-1.9-1.9 0-1 0.8-1.9 1.9-1.9 1 0 1.9 0.9 1.9 1.9 0 1.1-0.9 1.9-1.9 1.9z"/>
	<path id="Layer" class="s2" d="m243.5 84.4c-1.1 0-1.9-0.8-1.9-1.9 0-1 0.8-1.9 1.9-1.9 1 0 1.9 0.9 1.9 1.9 0 1.1-0.9 1.9-1.9 1.9z"/>
	<path id="Layer" class="s5" d="m235.9 82.9l-0.7-6.4q0-0.4 0-0.7-0.1-0.4-0.1-0.8 0-0.4-0.1-0.7 0-0.4-0.1-0.7c-0.4-0.8-1-0.7-1.9-0.6q-0.4 0-0.9 0.1-0.5 0-0.9 0.1-0.5 0.1-1 0.2-0.4 0-0.9 0.2c-1.2 0.4-0.7 1.2-0.6 2.4q0.3 3.6 0.5 7.2 0 0.2 0.1 0.5 0 0.3 0.1 0.5 0 0.2 0.2 0.5 0.1 0.2 0.2 0.4c0.7 0.9 1.9 0.9 3 0.8 1.2-0.1 2.5-0.3 3-1.3q0.1-0.3 0.1-0.5 0-0.2 0.1-0.4 0-0.2 0-0.4-0.1-0.2-0.1-0.4z"/>
	<path id="Layer" class="s0" d="m226.2 91.7q0.2 0.7 0.6 1.3 0.3 0.6 0.7 1.2 0.5 0.5 1 1 0.5 0.5 1 1 0.6 0.4 1.2 0.7 0.7 0.2 1.4 0.3 0.7 0.1 1.4-0.1 0.7-0.1 1.4-0.4 0.3-0.2 0.7-0.5 0.3-0.2 0.6-0.6 0.3-0.3 0.5-0.6 0.2-0.4 0.4-0.8 0.2-0.4 0.3-0.8 0.1-0.4 0.2-0.8 0.2-0.4 0.2-0.8 0.1-0.5 0.2-0.9l-11.9 0.7"/>
	<path id="Layer" class="s2" d="m180.8 39.6q-0.2 0.1-0.4 0.1-0.2-2.4-0.7-4.7-0.6-2.4-1.5-4.6-0.9-2.3-2.1-4.3-1.1-2.1-2.6-4-0.8-1-1.6-1.8-0.8-0.9-1.7-1.7-0.9-0.8-1.8-1.5-1-0.7-2-1.3-1.1-0.6-2.2-1.2-1.2-0.5-2.4-1-1.1-0.4-2.3-0.8-1.2-0.4-2.5-0.7-1.3-0.3-2.7-0.6-1.4-0.3-2.8-0.4-1.4-0.1-2.8-0.2-1.4 0-2.8 0.1-1.2 0.1-2.4 0.3-1.2 0.2-2.4 0.4-1.1 0.3-2.3 0.5-1.2 0.3-2.4 0.7c-6 1.7-12 4.3-16.2 9.1q-1.6 1.9-2.9 3.9-1.3 2.1-2.3 4.4-1 2.2-1.6 4.6-0.7 2.4-1 4.8-1 0.2-1.9 0.7-0.9 0.5-1.6 1.3-0.7 0.8-1 1.7-0.4 1-0.4 2.1v14q0 1 0.3 2 0.4 0.9 1 1.7 0.6 0.8 1.5 1.3 0.8 0.5 1.8 0.7 0 0.1 0 0.1 0 0-0.1 0.1 0 0 0 0.1 0.1 0 0.1 0.1 0.8 3.3 2.3 6.3 1.6 3 3.9 5.6 2.3 2.5 5.1 4.4 2.8 1.9 6.1 3.1 1 0.3 2.1 0.6v1q0 0.3 0.1 0.5 0.1 0.2 0.3 0.4 0.2 0.1 0.4 0.2 0.2 0.1 0.4 0.1h5.2q0.2 0 0.5-0.1 0.2-0.1 0.4-0.2 0.1-0.2 0.2-0.4 0.1-0.2 0.1-0.5v-1.1q0-0.2-0.1-0.4-0.1-0.2-0.2-0.4-0.2-0.2-0.4-0.3-0.3-0.1-0.5-0.1h-5.2q0 0-0.1 0.1-0.1 0-0.2 0 0 0-0.1 0-0.1 0.1-0.2 0.1c-2.3-0.6-4.5-1.4-6.5-2.6-2.1-1.2-4-2.6-5.7-4.3-1.6-1.7-3-3.6-4.2-5.7-1.1-2-2-4.2-2.6-6.6q0.1 0 0.1 0 1.2 0 2.2-0.4 1.1-0.4 1.9-1.3 0.8-0.8 1.3-1.8 0.4-1.1 0.4-2.3v-14q0-1.2-0.4-2.2-0.4-1-1.2-1.8-0.8-0.8-1.8-1.3-1-0.5-2.1-0.5 0.3-2.1 0.8-4.1 0.5-2 1.3-4 0.8-1.9 1.8-3.7 1-1.9 2.3-3.5 0.6-0.9 1.3-1.7 0.8-0.8 1.6-1.5 0.7-0.8 1.6-1.4 0.9-0.7 1.8-1.3 1-0.6 2-1.1 1-0.5 2.1-1 1-0.5 2.1-0.9 1.1-0.4 2.2-0.8c6.2-2 12.9-3.3 19.4-2q1.2 0.2 2.5 0.5 1.2 0.3 2.5 0.7 1.2 0.3 2.4 0.8 1.2 0.5 2.3 1 1.1 0.5 2 1.1 1 0.6 1.9 1.2 0.9 0.7 1.8 1.4 0.9 0.8 1.6 1.6c4.9 5.1 7.6 11.9 8.3 18.9q-0.9 0.2-1.7 0.8-0.8 0.5-1.3 1.2-0.6 0.8-0.9 1.7-0.3 0.9-0.4 1.9v14c0 1.6 0.6 3.1 1.7 4.2 1.1 1.1 2.6 1.7 4.2 1.7 1.5 0 3-0.6 4.1-1.7 1.1-1.1 1.7-2.6 1.7-4.2v-14q0-1.2-0.5-2.3-0.4-1-1.2-1.8-0.9-0.9-1.9-1.3-1.1-0.4-2.2-0.5z"/>
	<path id="Layer" class="s12" d="m276.2 124.6q-0.7 0.6-1.5 0.8-0.8 0.3-1.7 0.2-0.9 0-1.7-0.5-0.7-0.4-1.3-1.1c-2.4-3.2-5.2-7.7-6.9-10.5-1.8-2.7-5.3-7.2-6.5-10.2q-0.1-0.4 0-0.7 0.1-0.3 0.4-0.5 0.3-0.3 0.7-0.3 0.3 0 0.6 0.2l4.6 4.4q0.2 0.2 0.6 0.2 0.3 0 0.6-0.1 0.3-0.3 0.5-0.6 0.1-0.3-0.1-0.7c-1.7-4.9-3.6-10.5-5.2-15q-0.1-0.3-0.2-0.5 0-0.2-0.1-0.4 0-0.3 0-0.5-0.1-0.2 0-0.5 0-0.2 0.1-0.4 0.1-0.2 0.2-0.4 0.2-0.2 0.4-0.3 0.2-0.1 0.4-0.2c0.7 0 1.3 0.6 1.7 1.2l3.6 5.2c-0.6-1.7-1.3-3.3-2.4-6.4-0.2-0.4-0.2-0.8 0-1.2 0.1-0.4 0.4-0.7 0.8-0.9 0.4-0.2 0.8-0.2 1.2 0 0.4 0.1 0.7 0.4 0.9 0.8q0.5 0.7 1 1.5 0.5 0.8 1 1.7 0.5 0.8 0.9 1.6 0.5 0.8 0.9 1.7-0.3-0.6-0.4-1.3-0.2-0.7-0.3-1.3-0.1-0.7-0.2-1.4 0-0.7 0-1.4 0.1-0.4 0.4-0.7 0.3-0.3 0.7-0.3 0.4-0.1 0.8 0.2 0.3 0.2 0.5 0.6l6.3 22c1 3.4 2 7 1.5 10.5q-0.2 0.8-0.4 1.5-0.3 0.8-0.6 1.5-0.4 0.7-0.8 1.3-0.5 0.6-1 1.2z"/>
	<path id="Layer" class="s4" d="m89.5 116.4q-0.3-1-0.9-1.8-0.6-0.8-1.4-1.3-0.9-0.5-1.9-0.6-1-0.2-1.9 0-0.1 0.1-0.2 0.1 0 0-0.1 0-0.1 0-0.1 0.1-0.1 0-0.2 0c-2.4-10.9-9.9-18.9-19-18.9-9.6 0-17.6 9.2-19.4 21.4q-0.4-0.5-0.9-0.8-0.5-0.3-1.1-0.5-0.6-0.2-1.3-0.2-0.6 0.1-1.2 0.2-0.9 0.3-1.6 0.9-0.8 0.5-1.4 1.3-0.6 0.7-0.9 1.6-0.4 0.9-0.4 1.8 0 1 0.2 1.9 0.3 0.9 0.7 1.8 0.5 0.8 1.1 1.5 0.7 0.7 1.5 1.2 0.5 0.4 1 0.6 0.6 0.3 1.2 0.5 0.6 0.1 1.2 0.2 0.6 0 1.2 0 0.2 0 0.3-0.1 0.1 0 0.3 0 0.1-0.1 0.2-0.1 0.2 0 0.3-0.1c2.3 11.2 9.9 19.4 19.1 19.4 9.6 0 17.6-9.2 19.4-21.3q0.7-0.1 1.5-0.3 0.7-0.2 1.4-0.6 0.6-0.4 1.2-0.9 0.5-0.5 0.9-1.2 0.5-0.6 0.8-1.3 0.3-0.7 0.4-1.5 0.2-0.7 0.2-1.5 0-0.8-0.2-1.5z"/>
	<path id="Layer" class="s11" d="m48.4 113.5q0.6-0.5 1.2-0.9 0.7-0.4 1.4-0.7 0.7-0.2 1.4-0.4 0.8-0.2 1.5-0.2c0.8 0 0.8-1.3 0-1.2q-0.9 0-1.7 0.2-0.9 0.2-1.7 0.5-0.8 0.4-1.5 0.8-0.8 0.4-1.4 1c-0.6 0.5 0.2 1.3 0.8 0.9z"/>
	<path id="Layer" class="s2" d="m52.3 123.7c-1.1 0-1.9-0.9-1.9-1.9 0-1.1 0.8-1.9 1.9-1.9 1 0 1.9 0.8 1.9 1.9 0 1-0.9 1.9-1.9 1.9z"/>
	<path id="Layer" class="s2" d="m76.6 123.7c-1 0-1.9-0.9-1.9-1.9 0-1.1 0.9-1.9 1.9-1.9 1.1 0 1.9 0.8 1.9 1.9 0 1-0.8 1.9-1.9 1.9z"/>
	<path id="Layer" class="s11" d="m72.3 112.5q0.9-0.2 1.7-0.3 0.9-0.1 1.8 0 0.9 0.1 1.7 0.4 0.9 0.3 1.6 0.8c0.6 0.5 1.2-0.6 0.6-1q-0.8-0.6-1.8-0.9-0.9-0.4-1.9-0.5-1-0.1-2 0-1 0.1-2 0.4c-0.7 0.2-0.4 1.4 0.3 1.1z"/>
	<path id="Layer" class="s0" d="m60.9 121.5c1.8-0.2 3.5-0.2 5.3-0.4q0.1 0.4 0.3 0.8 0.1 0.4 0.2 0.9 0.1 0.4 0.1 0.9 0.1 0.5 0.1 0.9-0.1 0.5-0.2 0.9-0.1 0.4-0.4 0.8-0.3 0.4-0.6 0.7-0.4 0.2-0.8 0.4-0.4 0.1-0.7 0.1-0.4 0-0.7-0.1-0.3-0.1-0.6-0.3-0.3-0.2-0.6-0.4-0.2-0.3-0.4-0.5-0.2-0.3-0.4-0.6-0.1-0.3-0.2-0.7-0.2-0.3-0.2-0.6-0.1-0.4-0.1-0.7 0-0.4-0.1-0.7 0-0.4 0-0.7 0-0.3 0-0.7z"/>
	<path id="Layer" fill-rule="evenodd" class="s2" d="m35.4 163.7q0.1 0.4 0.1 0.8 0 0.4 0 0.8 0 0.3-0.1 0.7-0.1 0.3-0.2 0.5-0.1 0.3-0.3 0.5-0.2 0.3-0.3 0.5-0.2 0.2-0.5 0.3-0.6 0.5-1.3 0.9-0.6 0.4-1.3 0.8-0.7 0.3-1.4 0.6-0.7 0.4-1.4 0.6l-3.1 1.6q-0.4 0.2-0.7 0.4-0.4 0.1-0.8 0.3-0.4 0.2-0.8 0.3-0.3 0.2-0.7 0.3c-2.9 0.8-4.1-2.8-5.1-4.8-2.6-5.1-4.9-10.4-7.1-15.7-1.8-4.2-3.5-8.3-5.1-12.5q0-0.1 0-0.1-0.1-0.1 0-0.2 0 0 0-0.1 0-0.1 0.1-0.1 0 0 0-0.1 0 0 0 0 0 0 0 0 0.1 0 0.1 0 0 0 0 0 0-0.1 0-0.1 0 0 0 0 0 0 0 0 0.1 0 0.1 0 1.5-0.8 3-1.5 1.5-0.7 3-1.4 1.5-0.6 3.1-1.1 1.6-0.6 3.1-1 1.6-0.5 3.2-0.9 0.4-0.1 0.7-0.1 0.3 0 0.7 0 0.3 0 0.7 0.1 0.3 0.1 0.6 0.2 0.3 0.1 0.5 0.3 0.3 0.2 0.5 0.5 0.2 0.2 0.3 0.5 0.2 0.3 0.3 0.6c0.9 2.1 1.6 4.3 2.4 6.5l4.9 13.7q1.3 3.3 2.5 6.7 0.1 0.4 0.3 0.7zm-1.1 1.8q0-0.4 0-0.7 0-0.4-0.1-0.8-0.1-0.3-0.3-0.6-0.5-1.5-1-3l-2.3-6.3-4.7-12.8q-0.6-1.6-1.1-3.2-0.1-0.3-0.2-0.6-0.1-0.4-0.3-0.7-0.1-0.3-0.3-0.6-0.1-0.3-0.3-0.6c-0.8-0.8-2.1-0.5-3-0.2q-1.4 0.3-2.8 0.7-1.5 0.5-2.9 1-1.4 0.5-2.8 1.1-1.5 0.5-2.8 1.2-1.4 0.6-2.8 1.3c1.7 4.3 3.5 8.6 5.3 12.8 2.1 4.9 4.2 9.8 6.5 14.6q0.7 1.2 1.3 2.4 0.1 0.3 0.3 0.5 0.1 0.2 0.2 0.4 0.1 0.2 0.3 0.4 0.1 0.2 0.3 0.3c0.8 0.8 1.8 0.3 2.7-0.2q3-1.4 6-2.9c1.4-0.7 3.6-1.3 4.5-2.8q0.2-0.3 0.3-0.7z"/>
	<path id="Layer" class="s2" d="m16.3 144.3v0.1q0 0.4 0.3 0.7 0.3 0.3 0.7 0.3 0.4 0 0.7-0.3 0.3-0.3 0.3-0.7v-0.1q0-0.4-0.3-0.7-0.3-0.3-0.7-0.3-0.4 0-0.7 0.3-0.3 0.3-0.3 0.7z"/>
	<path id="Layer" class="s12" d="m14.5 185.7q0.5-2.2 0.7-4.4 0.2-2.2 0-4.4-0.2-2.2-0.7-4.3-0.5-2.2-1.3-4.2c-1.1-2.7-2.6-5.4-2.3-8.3q0.1-0.8 0.4-1.6 0.2-0.8 0.7-1.6 0.4-0.7 0.9-1.3 0.6-0.7 1.3-1.2 0.6-0.5 1.3-0.9 0.8-0.5 1.5-0.9 0.7-0.4 1.5-0.7 0.8-0.4 1.6-0.6 0.3-0.1 0.5-0.2 0.3-0.1 0.6-0.2 0.2 0 0.5 0 0.3-0.1 0.6 0 0.3 0 0.5 0.1 0.3 0.1 0.5 0.3 0.2 0.1 0.4 0.4 0.1 0.2 0.2 0.5 0 0.2 0 0.4-0.1 0.3-0.1 0.5-0.1 0.2-0.2 0.4-0.1 0.2-0.3 0.4-0.3 0.5-0.7 0.9-0.3 0.5-0.7 1-0.4 0.5-0.8 0.9-0.4 0.5-0.8 0.9 0.4-0.2 0.8-0.5 0.4-0.2 0.9-0.4 0.4-0.2 0.9-0.4 0.4-0.1 0.9-0.2 0.5-0.1 1-0.1 0.5 0.1 0.9 0.3 0.4 0.1 0.8 0.5 0.4 0.3 0.6 0.7 0.2 0.4 0.3 0.9 0 0.5-0.1 0.9-0.1 0.5-0.3 0.9-0.3 0.4-0.6 0.8-0.4 0.3-0.7 0.6-0.4 0.2-0.8 0.5-0.4 0.2-0.9 0.4-0.4 0.2-0.8 0.4c1.9-0.6 4.2-1.2 5.7 0q0.5 0.5 0.8 1.1 0.3 0.6 0.3 1.3 0 0.7-0.2 1.3-0.3 0.6-0.8 1.1c-1.1 0.9-2.7 1-3.9 1.8-1.8 1.2-2.1 3.8-1.7 5.9 0.4 2.2 1.2 4.3 0.8 6.4-0.2 1.1-0.6 2.1-1.3 2.9-0.6 0.9-1.5 1.5-2.5 1.9-1 0.4-2 0.5-3.1 0.4-1-0.1-2-0.5-2.9-1.2z"/>
	<path id="Layer" class="s13" d="m206.3 176.6q-0.3 0.2-0.8 0.2-0.4 0-0.8-0.1-0.3-0.2-0.6-0.6-0.2-0.3-0.2-0.8l-1.5-16.7c-0.1-1.2 0-2.8 1.2-3.2 1.1-0.3 2.1 0.7 2.6 1.7 0.5 1.1 1 2.3 2.1 2.6q0.4 0.1 0.8 0.1 0.4 0 0.8-0.2 0.4-0.1 0.7-0.4 0.3-0.2 0.5-0.6 0.2-0.3 0.5-0.7 0.2-0.3 0.4-0.6 0.2-0.4 0.4-0.8 0.2-0.3 0.3-0.7 0.2-0.3 0.5-0.6 0.3-0.3 0.6-0.6 0.3-0.2 0.7-0.4 0.4-0.1 0.8-0.2c1.4 0 2.4 1.3 3.1 2.4 0.8 1.2 1.6 2.6 2.9 2.9 1.8 0.4 3.3-1.2 4.4-2.6 1.1-1.4 2.5-3 4.3-2.9q0.4 0.1 0.8 0.2 0.3 0.2 0.6 0.4 0.4 0.2 0.6 0.5 0.3 0.3 0.5 0.6 0.2 0.3 0.4 0.7 0.2 0.3 0.3 0.7 0.2 0.3 0.3 0.7 0.1 0.3 0.3 0.7 0 0.3 0.1 0.5 0.1 0.2 0.3 0.4 0.1 0.2 0.3 0.4 0.2 0.2 0.5 0.3c0.9 0.3 1.8-0.6 2.2-1.4q0.2-0.4 0.4-0.8 0.2-0.4 0.4-0.8 0.2-0.3 0.4-0.7 0.2-0.4 0.5-0.7 0.2-0.4 0.6-0.7 0.3-0.2 0.7-0.4 0.4-0.2 0.8-0.2 0.5 0 0.9 0.1 0.3 0.1 0.5 0.3 0.3 0.2 0.5 0.4 0.2 0.3 0.4 0.6 0.1 0.3 0.2 0.6c0.3 0.8 0.5 1.7 0.8 2.5 0.3 0.7 0.9 1.5 1.7 1.4 1.8-0.1 1.5-3.5 3.2-3.8q0.3-0.1 0.6 0 0.2 0.1 0.5 0.2 0.2 0.1 0.4 0.4 0.2 0.2 0.3 0.4 0.1 0.3 0.1 0.5 0.1 0.3 0.1 0.6 0.1 0.3 0.1 0.5 0 0.3-0.1 0.6l-0.3 15.7c0 1.9-0.3 4.2-2 4.9q-0.5 0.2-0.9 0.2-0.5 0.1-1 0-0.4-0.1-0.8-0.3-0.4-0.1-0.8-0.4-0.4-0.3-0.7-0.6-0.4-0.3-0.7-0.6-0.4-0.3-0.7-0.6-0.3-0.4-0.6-0.7-0.9-0.6-1.8-1.2-0.9-0.6-1.8-1-1-0.5-2-0.8-1-0.3-2.1-0.5c-9.4-2.3-20.2-1.8-28.7 3z"/>
	<path id="Layer" class="s1" d="m251.6 181.2q-0.1 0-0.2 0-0.2 0-0.3 0-0.1 0-0.2 0-0.1 0.1-0.3 0.1c-1.1-8.6-11.7-15.3-24.5-15.3-13 0-23.6 6.9-24.5 15.6-1.8-0.8-3.9-0.5-5.4 0.7-1.5 1.3-2.1 3.2-1.7 5.1 0.5 1.9 2 3.4 3.9 3.8 1.8 0.4 3.8-0.3 5-1.8 3.8 6 12.5 10.2 22.7 10.2 9.8 0 18.3-3.9 22.2-9.5 1.3 1 3 1.4 4.6 1 1.6-0.4 2.9-1.6 3.4-3.1 0.6-1.6 0.4-3.3-0.6-4.7-0.9-1.3-2.5-2.1-4.1-2.1z"/>
	<path id="Layer" class="s2" d="m213.1 188.6c-1 0-1.9-0.9-1.9-1.9 0-1.1 0.9-1.9 1.9-1.9 1.1 0 1.9 0.8 1.9 1.9 0 1-0.8 1.9-1.9 1.9z"/>
	<path id="Layer" fill-rule="evenodd" class="s14" d="m138 200.6q-0.1 0.8-0.3 1.6-0.3 0.8-0.7 1.5-0.4 0.8-0.9 1.4-0.6 0.6-1.3 1.1-0.4 0.3-0.8 0.5-0.5 0.3-0.9 0.4-0.5 0.2-1 0.3-0.5 0.1-1 0.1 0.5 0.7 0.9 1.4 0.5 0.7 0.9 1.4 0.4 0.7 0.7 1.5 0.3 0.7 0.6 1.5c1.5 4 2.5 9.7-0.3 13.5q-0.5 0.6-1.2 1.2-0.7 0.5-1.5 0.8-0.9 0.4-1.7 0.5-0.9 0.1-1.8-0.1-0.6-0.1-1.2-0.3-0.7-0.1-1.3-0.4-0.6-0.2-1.1-0.5-0.6-0.3-1.1-0.7c0.3 1.1 0.4 2.3 0.2 3.4-0.1 1.2-0.5 2.3-1.1 3.3-0.5 1-1.3 1.9-2.2 2.6-0.9 0.7-2 1.2-3.1 1.5-2.9 0.7-6-0.1-8.7-1.3-5.2-2.4-10.5-8-16.8-5.9-1.3 0.6-1.4 2.1-2.1 3.1q-0.3 0.4-0.6 0.8-0.3 0.3-0.7 0.7-0.3 0.3-0.7 0.6-0.4 0.2-0.8 0.5c-4.1 2.4-10.1 3-14.2 0.5-3.1-1.9-4.8-6.2-3.4-9.4q-0.5 0-1 0.1-0.6 0-1.1-0.1-0.5 0-1-0.1-0.5-0.1-1-0.3c-3.7-1.3-6.5-4.7-6.1-8.8q0.1-1.2 0.6-2.3 0.4-1.2 1.1-2.2 0.7-1 1.7-1.8 0.9-0.7 2.1-1.2-0.9-0.5-1.7-1.1-0.7-0.6-1.4-1.3-0.7-0.7-1.3-1.5-0.6-0.8-1-1.7c-3.2-5.7-2-13.2 2.3-18.1q0.7-0.9 1.6-1.6 0.9-0.7 1.8-1.2 1-0.5 2.1-0.9 1.1-0.3 2.2-0.4 0.7 0 1.4 0 0.7 0.1 1.4 0.3 0.7 0.2 1.4 0.5 0.6 0.3 1.2 0.6-0.1-0.8-0.1-1.6 0-0.8 0.1-1.7 0.1-0.8 0.3-1.6 0.2-0.8 0.5-1.6 0.6-2 1.8-3.6 1.2-1.7 2.8-3 1.6-1.3 3.5-2 1.9-0.8 3.9-1 1.8-0.1 3.6 0.2 1.8 0.3 3.5 1 1.6 0.8 3.1 1.9 1.4 1.1 2.5 2.5c0.9-2.1 2.3-3.9 4-5.4 1.7-1.5 3.7-2.5 5.9-3 2.1-0.6 4.4-0.6 6.6-0.1 2.2 0.4 4.2 1.4 6 2.8q1.7 1.4 3 3.3 1.3 1.8 2 3.9 0.7 2.1 0.7 4.4 0.1 2.2-0.4 4.4c1.9-0.2 3.7 1.2 4.9 2.6 3.1 3.8 6.3 8.4 5.7 13.6zm-3.3-7.3q-0.4-0.7-0.8-1.3-0.4-0.7-0.9-1.3-0.4-0.7-0.9-1.3-0.4-0.6-0.9-1.2c-1.1-1.3-2.9-3-4.6-1.9q-0.2 0.1-0.5 0.1-0.2 0-0.4-0.1-0.2-0.2-0.3-0.4-0.1-0.3 0-0.5 0.4-1.1 0.6-2.3 0.2-1.2 0.2-2.5 0-1.2-0.1-2.4-0.2-1.2-0.6-2.4-0.7-2-2-3.6-1.3-1.7-3.1-2.9-1.7-1.3-3.7-1.9-2.1-0.6-4.2-0.6-2 0.1-3.9 0.8-1.9 0.7-3.5 1.9-1.6 1.3-2.7 2.9-1.2 1.7-1.7 3.6-0.1 0.2-0.3 0.4-0.2 0.1-0.4 0.2-0.3 0-0.5-0.1-0.2-0.1-0.3-0.3-0.6-0.9-1.2-1.6-0.7-0.8-1.5-1.5-0.8-0.6-1.6-1.1-0.9-0.5-1.9-0.9-1.6-0.7-3.4-0.9-1.8-0.2-3.5 0.1-1.8 0.3-3.4 1-1.6 0.8-2.9 2-1.4 1.3-2.3 2.9-0.9 1.5-1.4 3.3-0.5 1.8-0.5 3.6 0.1 1.8 0.6 3.6c0.3 0.9-1 1.3-1.5 0.6q-0.7-0.8-1.5-1.3-0.9-0.6-1.8-0.9-1-0.3-2-0.3-1.1 0-2.1 0.2c-5.4 1.4-8.6 7.5-8.8 12.8q-0.1 2 0.4 3.9 0.5 2 1.6 3.6 1.1 1.7 2.6 3 1.5 1.3 3.4 2c0.6 0.3 0.8 1.5 0 1.6q-0.7 0.1-1.4 0.3-0.6 0.3-1.2 0.6-0.6 0.4-1.2 0.9-0.5 0.4-0.9 1-0.8 0.9-1.2 2-0.4 1.2-0.4 2.4 0 1.2 0.4 2.3 0.4 1.2 1.1 2.1 0.8 0.9 1.8 1.5 1 0.6 2.2 0.9 1.1 0.3 2.3 0.3 1.1-0.1 2.2-0.5c0.8-0.4 1.7 0.6 1 1.2q-0.5 0.6-0.8 1.3-0.4 0.7-0.5 1.5-0.1 0.8 0 1.6 0.2 0.8 0.5 1.5c1.8 4.2 7.3 4.7 11.3 3.9q0.8-0.2 1.5-0.4 0.8-0.3 1.5-0.6 0.7-0.4 1.3-0.8 0.7-0.5 1.2-1 0.3-0.3 0.5-0.6 0.2-0.3 0.3-0.6 0.2-0.3 0.4-0.6 0.1-0.3 0.2-0.7 0.2-0.3 0.4-0.6 0.3-0.3 0.5-0.6 0.3-0.3 0.7-0.5 0.3-0.2 0.7-0.3 1.1-0.3 2.2-0.4 1.2-0.1 2.3 0 1.2 0.1 2.3 0.4 1.1 0.3 2.1 0.8c5 2.3 9.8 7.3 15.7 6.5 1.2-0.2 2.4-0.7 3.4-1.4 1-0.8 1.8-1.8 2.3-2.9 0.4-1.2 0.6-2.4 0.5-3.7-0.2-1.2-0.7-2.4-1.4-3.4-0.5-0.6 0.5-1.6 1.1-1.1 2.1 1.6 4.4 3.4 7.1 3.5 4.7 0.1 5.8-4.8 5.5-8.5q-0.2-1.7-0.6-3.3-0.5-1.6-1.1-3.2-0.7-1.5-1.6-3-0.9-1.4-2-2.7c-0.5-0.5-0.1-1.6 0.8-1.3q0.6 0.2 1.3 0.2 0.7 0 1.4-0.2 0.7-0.1 1.3-0.5 0.6-0.3 1-0.8c3.1-3 2-7.8 0.2-11.1z"/>
	<path id="Layer" class="s2" d="m238.8 188.6c-1.1 0-1.9-0.9-1.9-1.9 0-1.1 0.8-1.9 1.9-1.9 1 0 1.9 0.8 1.9 1.9 0 1-0.9 1.9-1.9 1.9z"/>
	<path id="Layer" class="s2" d="m236.1 178.9q0.7 0 1.4 0.2 0.7 0.1 1.4 0.4 0.6 0.3 1.2 0.8 0.6 0.4 1.1 0.9c0.5 0.6 1.4-0.3 0.8-0.8q-0.5-0.7-1.2-1.1-0.7-0.5-1.5-0.9-0.7-0.3-1.5-0.5-0.9-0.2-1.7-0.2c-0.8-0.1-0.8 1.1 0 1.2z"/>
	<path id="Layer" class="s15" d="m120.8 211.8c0-12.8-9.1-22.7-21.2-22.7-11.6 0-18.6 8.2-19.2 20.1q-0.2-0.2-0.5-0.3-0.3-0.1-0.5-0.2-0.3-0.1-0.6-0.1-0.3 0-0.6 0c-2.6 0-4.8 2.4-4.8 5.3 0 3 2.2 5.4 4.8 5.4q0.5 0 0.9-0.1 0.4-0.1 0.8-0.2 0.4-0.2 0.8-0.5 0.4-0.2 0.7-0.5 0.5 1.8 1.3 3.6 0.8 1.8 1.9 3.4 1.1 1.6 2.5 3 1.3 1.4 2.9 2.6c-2.1 6.2-5.1 16.4-2.6 19.8 1.5 2.1 4.6 1.2 6.4 1.1 2.2-0.1 5.2 0.2 7.3-1.3 3.1-2.1 4.3-10.1 3.7-16 10.3-1.5 16-10.7 16-22.4z"/>
	<path id="Layer" class="s2" d="m209.2 181.3q0.7-0.3 1.4-0.5 0.7-0.1 1.5-0.3 0.7-0.1 1.4-0.1 0.8 0 1.5 0.1c0.8 0 0.8-1.2 0-1.2q-0.8-0.1-1.6-0.1-0.7 0-1.5 0.1-0.8 0.2-1.5 0.4-0.8 0.2-1.5 0.5c-0.7 0.2-0.4 1.4 0.3 1.1z"/>
	<path id="Layer" class="s4" d="m232.8 190q-0.3 0.8-0.6 1.6-0.3 0.7-0.7 1.5-0.4 0.7-0.9 1.3-0.5 0.7-1.1 1.3-0.2 0.3-0.5 0.5-0.2 0.1-0.5 0.3-0.3 0.2-0.5 0.3-0.3 0.1-0.6 0.2-0.5 0-0.9 0-0.5-0.1-0.9-0.2-0.5-0.2-0.9-0.4-0.3-0.2-0.7-0.5-0.7-0.6-1.4-1.2-0.6-0.6-1.2-1.3-0.5-0.7-1-1.5-0.4-0.8-0.8-1.6 1.6 0.8 3.2 1.1 1.7 0.4 3.4 0.3 1.8 0 3.4-0.5 1.7-0.4 3.2-1.2z"/>
	<path id="Layer" class="s16" d="m145.6 293.5q0.1-0.2 0.3-0.5 0.1-0.2 0.2-0.5 0.1-0.3 0.1-0.6 0-0.2 0-0.5c-2.9-8.3-6.3-16.5-11.5-23.8q-1.9-2.8-4.2-5.3-2.3-2.6-5-4.8-2.6-2.2-5.5-4-2.9-1.8-6-3.3c-8.9-3.8-19.1-4.6-28.8-3.7-14.8 1.3-29.3 6.3-40.9 14.8-11.3 8.1-19.8 19.5-23.6 32.2 0 0 124.9 0 124.9 0z"/>
	<path id="Layer" class="s14" d="m107.4 199.3q-1.3 0-2.6 0-1.2 0.1-2.5 0.2-1.2 0.1-2.5 0.4-1.2 0.2-2.5 0.4l-0.1 0.1q0.1 0.9 0.1 1.7 0 0.9 0.1 1.7 0 0.9 0 1.7-0.1 0.9-0.1 1.7c0 2.3 0.3 4.8 1.6 6.3q0.3 0.3 0.6 0.5 0.3 0.3 0.7 0.5 0.4 0.2 0.8 0.3 0.4 0.1 0.8 0.2 0.4 0.1 0.8 0.2 0.4 0 0.8 0 0.4 0 0.8 0 0.4-0.1 0.7-0.3c2.1-0.8 3.3-3.9 3.6-6.8q0-1.1-0.1-2.2 0-1.1-0.1-2.2-0.2-1.1-0.4-2.2-0.2-1.1-0.5-2.1z"/>
	<path id="Layer" class="s2" d="m93.5 198.5q-0.8 0-1.6 0.1-0.8 0.1-1.6 0.4-0.8 0.3-1.5 0.7-0.7 0.4-1.4 0.9-0.1 0.2-0.3 0.4-0.1 0.3-0.1 0.6 0 0.2 0.1 0.5 0.2 0.3 0.3 0.5 0.2 0.2 0.5 0.3 0.3 0.1 0.5 0.1 0.3 0 0.6-0.1 0.2-0.1 0.4-0.3 0.5-0.4 1-0.6 0.5-0.3 1-0.4 0.5-0.2 1-0.2 0.6-0.1 1.1-0.1c0.4 0 0.7-0.2 1-0.4 0.2-0.3 0.4-0.6 0.4-1 0-0.4-0.2-0.7-0.4-1-0.3-0.2-0.6-0.4-1-0.4z"/>
	<path id="Layer" class="s2" d="m117.6 197.9c-1.5-2.5-6.3-3.7-8.4-1.5-1.2 1.3 0.8 3.3 2 2q0.1-0.1 0.1-0.1 0.1 0 0.1 0 0.1-0.1 0.3-0.1c0 0 0.1 0 0.2-0.1q0.1 0 0.3 0 0.2 0 0.3 0 0.2 0 0.3 0.1 0.2 0 0.4 0 0.1 0.1 0.3 0.1 0.2 0.1 0.3 0.1 0.2 0.1 0.3 0.1 0.2 0.1 0.3 0.2 0.2 0.1 0.4 0.2 0 0 0 0 0 0 0.1 0.1 0 0 0 0 0.1 0 0.1 0.1 0 0 0 0 0 0 0 0c0.1 0.1 0.2 0.2 0.2 0.2 0.2 0.3 0.5 0.5 0.8 0.6 0.4 0.1 0.7 0 1-0.2 0.3-0.2 0.6-0.4 0.7-0.8 0.1-0.3 0-0.7-0.1-1z"/>
	<path id="Layer" class="s2" d="m87.3 206.5q0 0.6 0.1 1.2 0.1 0.5 0.3 1.1 0.1 0.5 0.3 1.1 0.2 0.5 0.4 1c0.6 1.1 1.4 2.5 2.9 2.3 1.1-0.2 1.6-1.4 1.8-2.4q0.1-0.6 0.2-1.2 0-0.6 0-1.1 0-0.6-0.1-1.2-0.1-0.6-0.2-1.2-0.1-0.2-0.3-0.3-0.2-0.2-0.5-0.1-0.2 0.1-0.3 0.3-0.2 0.2-0.1 0.4 0.1 0.4 0.2 0.8 0 0.4 0.1 0.8 0 0.4 0 0.8 0 0.4 0 0.8c-0.1 0.6-0.2 2.2-0.9 2.4-1 0.3-1.8-1.7-2-2.4q-0.2-0.4-0.3-0.7-0.1-0.4-0.2-0.8-0.1-0.4-0.1-0.8-0.1-0.4-0.1-0.8c-0.1-0.7-1.3-0.7-1.2 0z"/>
	<path id="Layer" class="s2" d="m110.1 205.3q0.1 0.5 0.3 1 0.1 0.6 0.3 1.1 0.2 0.5 0.4 1 0.2 0.5 0.5 1c0.5 0.9 1.3 2 2.5 1.5 1-0.4 1.2-1.6 1.2-2.6q0-0.6-0.1-1.1 0-0.6-0.1-1.1-0.1-0.6-0.3-1.1-0.1-0.6-0.3-1.1c-0.3-0.7-1.5-0.4-1.2 0.3q0.1 0.4 0.3 0.8 0.1 0.3 0.2 0.7 0.1 0.4 0.1 0.8 0.1 0.4 0.1 0.8c0.1 0.5 0.3 2-0.2 2.4-1 0.8-2.4-4.1-2.5-4.7-0.2-0.8-1.3-0.5-1.2 0.3z"/>
	<path id="Layer" class="s4" d="m92.5 216.7q0.6 0.7 1.2 1.4 0.6 0.7 1.3 1.3 0.6 0.6 1.3 1.2 0.7 0.6 1.5 1.1 0.7 0.6 1.5 0.9 0.8 0.4 1.7 0.7 0.9 0.2 1.8 0.2 0.9 0.1 1.8 0 0.8-0.2 1.6-0.5 0.7-0.4 1.4-0.8 0.7-0.4 1.3-1 0.6-0.5 1-1.2 0.5-0.6 1-1.3 0.4-0.7 0.8-1.4 0.4-0.7 0.7-1.5 0.4-0.7 0.7-1.5v0.2q-2.3 1.1-4.9 1.8-2.5 0.7-5.2 1-2.6 0.3-5.2 0.1-2.6-0.2-5.2-0.9z"/>
	<path id="Layer" fill-rule="evenodd" class="s4" d="m290.3 258.3q0.1 2 0 4-0.1 2-0.4 4-0.2 2-0.7 3.9-0.2 1-0.5 1.9-0.4 1-0.8 1.9-0.4 0.9-0.9 1.8-0.5 0.9-1.1 1.7-0.6 0.8-1.3 1.5-0.6 0.7-1.4 1.4-0.7 0.6-1.5 1.2-0.9 0.6-1.7 1.1-2 1-4 1.8-2.1 0.8-4.2 1.4-2.1 0.5-4.3 0.8-2.2 0.2-4.4 0.2-2-0.1-4-0.4-2-0.3-4-0.9-1.9-0.6-3.7-1.5-1.8-0.9-3.5-2-0.8-0.6-1.6-1.2-0.7-0.6-1.4-1.3-0.7-0.7-1.3-1.4-0.7-0.7-1.3-1.5c-1.5-2-2.7-4.7-2.3-7.3 0.9-5.3 7.4-5.7 11.6-6.6q2-0.4 4.1-0.9 2.1-0.5 4.1-1.1 2.1-0.6 4.1-1.3 2-0.7 4-1.5-0.9-0.3-1.7-0.8-0.8-0.5-1.5-1-0.8-0.6-1.4-1.3-0.7-0.6-1.3-1.4c-3.9-5.1-4.3-12-4.3-18.2q0-1.1 0.1-2.2 0-1.1 0.2-2.2 0.1-1.1 0.3-2.2 0.2-1.1 0.5-2.2 0.3-1.1 0.7-2.1 0.4-1 0.9-2 0.5-1 1.1-2 0.6-0.9 1.2-1.8 0.1 0 0.1 0 0 0 0 0 0 0 0-0.1 0 0 0 0 0 0 0 0 0 0 0 0 0 0 0 0 0 0 0 0 0.3-0.4 0.6-0.7 0.4-0.3 0.8-0.5 0.3-0.3 0.8-0.4 0.4-0.2 0.8-0.3c2.7-0.5 5 1.4 6.8 3.1q0.7 0.7 1.4 1.4 0.7 0.7 1.4 1.4 0.7 0.7 1.3 1.5 0.7 0.7 1.3 1.5 2.4 3.1 4.4 6.5 2 3.4 3.6 7.1 1.5 3.6 2.5 7.4 1 3.9 1.4 7.8 0.3 2 0.4 4zm-1.3 0.1q-0.1-3.7-0.8-7.4-0.6-3.7-1.7-7.2-1.2-3.5-2.8-6.9-0.8-1.7-1.7-3.3-0.9-1.6-1.9-3.2-1-1.5-2.2-3-1.1-1.5-2.3-2.9-0.6-0.7-1.2-1.4-0.6-0.7-1.3-1.3-0.7-0.7-1.3-1.3-0.7-0.6-1.4-1.2-0.4-0.3-0.8-0.6-0.4-0.3-0.9-0.5-0.4-0.2-0.9-0.3-0.5-0.1-1-0.2-0.4 0.1-0.9 0.2-0.4 0.1-0.8 0.3-0.4 0.2-0.8 0.4-0.3 0.3-0.6 0.7-0.7 0.9-1.3 1.9-0.6 1-1.1 2.1-0.5 1-0.9 2.1-0.4 1.1-0.7 2.3-0.2 1-0.4 2-0.1 1.1-0.2 2.1-0.1 1.1-0.2 2.1 0 1.1 0 2.1 0 1.2 0 2.4 0.1 1.2 0.2 2.4 0.1 1.2 0.3 2.4 0.1 1.2 0.4 2.4c1.2 5.2 4.5 10.6 10.1 11.8 0.7 0.1 0.5 0.9 0 1.1q-2 0.8-4 1.6-2 0.7-4.1 1.3-2.1 0.7-4.2 1.2-2.1 0.6-4.2 1.1-2.1 0.4-4.3 0.8-0.8 0.1-1.5 0.3-0.8 0.2-1.6 0.4-0.7 0.3-1.4 0.6-0.8 0.4-1.4 0.8c-2.1 1.5-2.4 4-1.6 6.3q0.4 0.9 0.8 1.7 0.5 0.9 1.1 1.6 0.5 0.8 1.2 1.5 0.6 0.7 1.3 1.3 0.7 0.7 1.4 1.2 0.7 0.6 1.5 1.1 0.7 0.5 1.5 1 0.8 0.4 1.6 0.8 1.9 0.8 3.8 1.4 1.9 0.6 3.9 0.9 2 0.3 4 0.3 2 0 4-0.3c5.2-0.7 10.8-2.5 14.9-6 3.9-3.4 5.6-8.5 6.2-13.6q0.4-3.7 0.2-7.4z"/>
	<path id="Layer" fill-rule="evenodd" class="s2" d="m258.5 251.8q0.1 0.6 0.2 1.3 0 0.6 0 1.3 0 0.6-0.1 1.2c-0.7 3.6-4.8 3.8-7.6 4.3q-6 1.1-11.9 2c-7.9 1.2-15.8 2.2-23.7 2.7q-6 0.3-12 0.2c-3.5 0-7.3 0.1-10.7-0.9q-1.1-0.4-2.1-0.9-1-0.6-1.8-1.4-0.8-0.8-1.5-1.7-0.6-0.9-1.1-2c-1.3-3.1-1.9-6.5-2.6-9.8q-2.6-11.9-5.2-23.8-0.1-0.4-0.1-0.9 0-0.5 0.1-0.9 0.1-0.5 0.2-0.9 0.2-0.5 0.4-0.9c0.9-1.3 2.6-1.6 4-1.9q2.8-0.4 5.7-0.6c3.9-0.4 7.9-0.7 11.9-0.9 7.7-0.6 15.3-1.5 22.9-2.3 3.7-0.4 7.4-0.7 11.1-0.9 3.4-0.1 6.8-0.1 9.9 1.6 2.9 1.7 4.4 4.5 5.7 7.5q2.2 5.3 3.9 10.8 1.8 5.4 3 11.1 0.6 2.7 1.1 5.5 0.2 0.6 0.3 1.2zm-1.3-0.4q-0.5-2.7-1.1-5.4-0.6-2.7-1.3-5.3-0.7-2.7-1.5-5.3-0.8-2.6-1.7-5.2-0.4-1.2-0.8-2.4-0.5-1.2-0.9-2.4-0.5-1.2-1.1-2.3-0.5-1.2-1.1-2.3-0.6-1.1-1.4-2-0.8-0.9-1.8-1.6-1-0.7-2.2-1.2-1.1-0.4-2.3-0.6-0.6 0-1.3-0.1-0.6 0-1.2 0-0.6 0-1.2 0-0.6 0-1.2 0-2.6 0.1-5.2 0.3c-3.5 0.3-7.1 0.6-10.6 1-7.3 0.8-14.6 1.6-21.9 2.1-3.7 0.2-7.5 0.5-11.2 0.9q-0.7 0-1.3 0.1-0.7 0.1-1.3 0.2-0.7 0.1-1.3 0.3-0.6 0.2-1.3 0.4-0.4 0.2-0.7 0.6-0.4 0.4-0.6 0.9-0.2 0.4-0.2 0.9-0.1 0.5 0.1 1l1.2 5.6q2.4 11.1 4.9 22.3c0.6 2.8 1.3 5.9 3.2 8.1 2.1 2.5 5.3 3.2 8.5 3.4q2.8 0.2 5.6 0.2 2.8 0.1 5.6 0 2.8 0 5.6-0.2 2.8-0.1 5.6-0.4c7.6-0.6 15.1-1.6 22.6-2.8 3.7-0.6 7.4-1.3 11.1-2 1.4-0.3 3-0.6 3.7-2 0.7-1.4 0.2-3.3 0-4.8z"/>
	<path id="Layer" class="s2" d="m215.7 234.8c-1.4 1.8-4.1 5.4-3.3 8q0.3 0.8 0.9 1.6 0.5 0.7 1.2 1.2 0.8 0.6 1.6 0.9 0.9 0.3 1.8 0.3 0.9 0 1.8-0.3 0.9-0.3 1.6-0.9 0.7-0.6 1.2-1.3 0.5-0.8 0.8-1.6 0.1-0.6 0.2-1.2 0-0.6-0.1-1.2 0-0.6-0.2-1.2-0.1-0.6-0.4-1.1c-0.9-2.3-2.7-4.4-5.5-4.1q-0.3 0-0.5 0.1-0.2 0-0.4 0.2-0.2 0.1-0.4 0.2-0.2 0.2-0.3 0.4z"/>
	<path id="Layer" class="s0" d="m234.8 266.4c-2.2-2.5-3.7-4.8-6.5-10.9q-0.3-0.5-0.5-1-0.1-0.5-0.2-1-0.1-0.5-0.2-1.1 0-0.5 0-1 0.1-0.5 0.3-1 0.3-0.5 0.6-0.9 0.4-0.3 0.9-0.6 0.5-0.2 1-0.2 0.5 0 0.9 0.2 0.5 0.2 0.8 0.5 0.4 0.3 0.7 0.7 0.3 0.3 0.5 0.8 0.2 0.4 0.4 0.8 0.2 0.5 0.5 0.9 0.2 0.4 0.5 0.8 0.3 0.3 0.6 0.7-0.3-0.5-0.5-1-0.2-0.5-0.4-1-0.2-0.5-0.3-1-0.1-0.6-0.1-1.1-0.1-0.5 0-1.1 0.1-0.5 0.4-1 0.3-0.5 0.6-0.8 0.4-0.4 0.9-0.7c1.5-0.6 3.4 0.4 4.2 1.7q0.4 0.6 0.7 1.1 0.4 0.6 0.6 1.2 0.3 0.6 0.5 1.2 0.1 0.6 0.3 1.2-0.1-0.5-0.2-1.1 0-0.6-0.1-1.2 0-0.6 0-1.2 0-0.6 0-1.2c0.1-1.6 1.3-3.4 2.9-3.1 1 0.3 1.7 1.3 2.2 2.2l4.2 7.9c0.7 1.4 1.6 2.9 3.3 2.9q0.5-0.1 1-0.3 0.5-0.2 0.9-0.5 0.4-0.4 0.6-0.8 0.3-0.5 0.4-1c0.7-2.6-0.6-4.9-0.9-7.4-0.2-1.4 0.4-3.2 1.8-3.3 1.3-0.1 2.1 1.3 2.5 2.6 1.3 4.1 2.2 8.6 1.5 12.9-0.6 4.3-3.1 8.5-7 10.4-3 1.5-6.9 3-10.2 2.2-3-0.7-6-1.9-10.1-6.4z"/>
	<path id="Layer" fill-rule="evenodd" class="s2" d="m224.8 228.4q0 0.3 0 0.7-0.1 0.4-0.1 0.8-0.1 0.4-0.2 0.7c-0.5 1.9-1.3 4.4-3 5.6q-0.6 0.4-1.3 0.6-0.6 0.2-1.3 0.3-0.7 0-1.4-0.1-0.7-0.1-1.4-0.3c-3.4-1.1-4.2-4.8-4.5-8q-0.1-0.2-0.1-0.5 0-0.3 0-0.6 0-0.2 0.1-0.5 0.1-0.3 0.1-0.5 0.2-0.3 0.3-0.4 0.2-0.2 0.4-0.3 0.3-0.1 0.5-0.1 0.2 0 0.5 0.1c0.8 0.3 1.2 1.1 1.6 1.8q0.3 0.5 0.6 1 0-0.2 0.1-0.4 0-0.2 0.1-0.4 0.1-0.2 0.2-0.4 0.1-0.2 0.2-0.3 0.2-0.3 0.5-0.5 0.2-0.2 0.6-0.4 0.3-0.1 0.6-0.2 0.4-0.1 0.7 0 0.4 0 0.7 0.1 0.3 0.2 0.5 0.4 0.3 0.3 0.4 0.6 0.2 0.3 0.2 0.7 0 0 0 0.1 0 0 0 0.1 0 0 0 0.1 0 0 0 0.1 0.2-0.3 0.5-0.6 0.2-0.3 0.5-0.5 0.3-0.2 0.7-0.4 0.3-0.1 0.6-0.3 0.3-0.1 0.7 0 0.3 0 0.5 0.2 0.3 0.1 0.5 0.4 0.2 0.2 0.3 0.5 0 0.4 0.1 0.8zm-2.1-0.5q-0.5 0.3-0.8 0.6-0.4 0.4-0.7 0.8-0.3 0.5-0.5 1-0.2 0.5-0.3 1-0.1 0.2-0.2 0.3-0.2 0.1-0.4 0.1-0.2 0-0.3-0.1-0.2-0.1-0.3-0.3 0-0.3-0.1-0.5 0-0.3 0-0.6 0-0.2 0-0.5 0-0.2 0.1-0.5c0.1-0.6 0.2-1.5-0.4-1.9q-0.3 0-0.5 0-0.3 0-0.5 0.1-0.2 0.1-0.4 0.2-0.2 0.2-0.3 0.4-0.2 0.3-0.3 0.7-0.1 0.3-0.2 0.6 0 0.3 0 0.7-0.1 0.3 0 0.6c-0.1 0.6-0.9 0.9-1.2 0.3q-0.2-0.4-0.4-0.9-0.2-0.5-0.5-0.9-0.3-0.5-0.5-0.9-0.3-0.4-0.6-0.8c-0.7-0.8-0.7 0.3-0.6 0.7q0 0.9 0.1 1.8c0.4 2.3 1.1 4.8 3.5 5.6q0.5 0.2 1 0.3 0.5 0.1 1 0 0.5 0 1-0.1 0.5-0.1 1-0.3c1.3-0.6 2-2.3 2.5-3.6q0.1-0.3 0.2-0.6 0.1-0.3 0.1-0.6 0.1-0.3 0.2-0.6 0-0.3 0.1-0.6c0.1-0.6 0.3-2.2-0.8-1.5z"/>
	<path id="Layer" class="s2" d="m139.9 148.5c-0.8 0-1.5-0.7-1.5-1.5 0-0.9 0.7-1.6 1.5-1.6 0.9 0 1.6 0.7 1.6 1.6 0 0.8-0.7 1.5-1.6 1.5z"/>
	<path id="Layer" class="s2" d="m165.7 147.4c-0.8 0-1.5-0.7-1.5-1.6 0-0.8 0.7-1.5 1.5-1.5 0.9 0 1.6 0.7 1.6 1.5 0 0.9-0.7 1.6-1.6 1.6z"/>
	<path id="Layer" class="s0" d="m154.2 142.7q-0.6 0-1.3 0-0.7 0-1.3 0.1-0.7 0.1-1.3 0.2-0.7 0.1-1.3 0.3h-0.1q0 0.5 0.1 1 0 0.5 0 1 0 0.5 0 1 0 0.5-0.1 1 0 0.4 0 0.9 0.1 0.5 0.2 0.9 0.1 0.5 0.3 0.9 0.2 0.5 0.4 0.9 0.1 0.1 0.3 0.3 0.2 0.1 0.4 0.2 0.2 0.2 0.4 0.2 0.2 0.1 0.4 0.2 0.2 0 0.4 0.1 0.2 0 0.4 0 0.2 0 0.5-0.1 0.2 0 0.4-0.1c1-0.5 1.7-2.2 1.8-3.9q0-0.7 0-1.3 0-0.6-0.1-1.3-0.1-0.6-0.2-1.2-0.1-0.6-0.2-1.3z"/>
	<path id="Layer" class="s4" d="m141 141.1q-0.8-0.2-1.6-0.3-0.8 0-1.6 0.1-0.8 0-1.6 0.3-0.8 0.2-1.6 0.5-0.2 0.2-0.4 0.4-0.1 0.2-0.2 0.5 0 0.3 0 0.6 0 0.2 0.2 0.5 0.1 0.2 0.4 0.4 0.2 0.1 0.5 0.2 0.2 0 0.5 0 0.3 0 0.5-0.2 0.5-0.2 1.1-0.3 0.5-0.1 1-0.2 0.6 0 1.1 0 0.6 0.1 1.1 0.3c0.4 0 0.7 0 1-0.2 0.3-0.2 0.6-0.5 0.7-0.9 0-0.4 0-0.7-0.2-1.1-0.2-0.3-0.5-0.5-0.9-0.6z"/>
	<path id="Layer" class="s4" d="m167.6 137.3q-0.9-0.2-1.7-0.2-0.8 0-1.6 0.2-0.8 0.1-1.6 0.4-0.8 0.3-1.5 0.7-0.2 0.2-0.3 0.4-0.2 0.2-0.2 0.5-0.1 0.3 0 0.6 0.1 0.2 0.2 0.5 0.2 0.2 0.4 0.3 0.3 0.2 0.5 0.2 0.3 0.1 0.6 0 0.3-0.1 0.5-0.2 0.5-0.3 1-0.5 0.5-0.1 1.1-0.2 0.5-0.1 1-0.1 0.6 0.1 1.1 0.2c0.4 0 0.8-0.1 1.1-0.3 0.3-0.2 0.5-0.5 0.5-0.9 0.1-0.4 0-0.7-0.2-1-0.3-0.3-0.6-0.6-0.9-0.6z"/>
	<path id="Layer" class="s2" d="m148.2 146.5c0 4.3-2.7 8.1-6.8 9.6-4 1.4-8.5 0.2-11.2-3.2-2.8-3.3-3.1-8-0.9-11.7 2.2-3.6 6.5-5.5 10.8-4.7q1.7 0.4 3.2 1.3 1.5 0.9 2.6 2.3 1.1 1.3 1.7 3 0.6 1.6 0.6 3.4 0 0.2 0.1 0.3 0.1 0.1 0.3 0.1 0.2 0 0.3-0.1 0.1-0.1 0.1-0.3c0-4.6-2.9-8.8-7.3-10.3-4.3-1.6-9.2-0.2-12.2 3.3-2.9 3.6-3.3 8.7-0.9 12.6 2.4 4 7 6.1 11.6 5.2q1.8-0.4 3.5-1.4 1.6-1 2.8-2.5 1.2-1.4 1.8-3.2 0.7-1.8 0.7-3.7 0-0.2-0.1-0.3-0.1-0.1-0.3-0.1-0.2 0-0.3 0.1-0.1 0.1-0.1 0.3z"/>
	<path id="Layer" class="s2" d="m55.8 131.5q0.9 1.1 2.1 1.9 1.1 0.9 2.4 1.4 1.3 0.6 2.7 0.9 1.4 0.3 2.8 0.2c3.9-0.1 6.4-3.2 8.5-6.1 0.8-1.1-1-2.1-1.7-1.1-1.8 2.5-3.8 5.2-7.1 5.2q-1.1 0-2.3-0.2-1.2-0.3-2.2-0.8-1.1-0.5-2.1-1.2-0.9-0.7-1.7-1.6c-0.8-1-2.3 0.5-1.4 1.4z"/>
	<path id="Layer" class="s2" d="m176.2 145.1c0 4.3-2.7 8.1-6.7 9.5-4.1 1.5-8.6 0.2-11.3-3.1-2.7-3.3-3-8-0.8-11.7 2.2-3.7 6.5-5.6 10.7-4.7q1.7 0.4 3.2 1.3 1.5 0.9 2.6 2.2 1.1 1.4 1.7 3.1 0.6 1.6 0.6 3.4 0 0.1 0.2 0.2 0.1 0.2 0.2 0.2 0.2 0 0.3-0.2 0.1-0.1 0.1-0.2c0-4.7-2.9-8.8-7.2-10.4-4.4-1.5-9.3-0.2-12.2 3.4-3 3.6-3.3 8.6-0.9 12.6 2.3 4 7 6 11.5 5.1q1.9-0.4 3.5-1.3 1.6-1 2.8-2.5 1.2-1.5 1.9-3.3 0.6-1.7 0.6-3.6 0-0.2-0.1-0.3-0.1-0.1-0.3-0.1-0.1 0-0.2 0.1-0.1 0.1-0.2 0.3z"/>
	<path id="Layer" class="s2" d="m145.2 157.1c3 4 10.8 4.2 13.3-0.5 0.6-1.1-1.1-2.1-1.8-1q-0.3 0.6-0.8 1.1-0.5 0.5-1.1 0.8-0.6 0.3-1.3 0.5-0.7 0.1-1.4 0.1c-1.7 0-4-0.5-5.1-2q-0.1-0.2-0.3-0.3-0.1-0.1-0.3-0.2-0.2 0-0.4 0-0.2 0-0.4 0.1-0.2 0.1-0.3 0.3-0.1 0.1-0.2 0.3 0 0.2 0 0.4 0 0.2 0.1 0.4z"/>
	<path id="Layer" class="s4" d="m179.3 248.3l-0.9 1.4q-0.2-0.5-0.4-1-0.2-0.6-0.5-1.1-0.2-0.5-0.5-1-0.2-0.6-0.5-1.1c-0.3-0.7-1.4 0-1 0.6q0.3 0.6 0.6 1.3 0.3 0.6 0.6 1.2 0.3 0.6 0.5 1.2 0.3 0.7 0.5 1.3 0 0 0 0.1-0.1 0-0.1 0 0 0.1 0 0.1 0 0 0 0.1-0.7 3.9-1.2 7.9-0.4 4-0.6 8-0.2 4-0.1 8 0.1 4 0.5 8 0.4 4.5 1.2 8.9c0.1 0.7 1.3 0.4 1.1-0.3q-0.6-3.9-1-7.8-0.4-3.9-0.6-7.8-0.1-3.9 0-7.8 0.2-4 0.6-7.9 0.4-4.5 1.2-8.9 0-0.1 0.1-0.1 0 0 0 0 0-0.1 0-0.1-0.1 0-0.1 0 0.1-0.1 0.2-0.1l1.5-2.5c0.4-0.7-0.7-1.3-1.1-0.6z"/>
	<path id="Layer" class="s2" d="m58.8 278.5q-0.5 0.8-1 1.6-0.5 0.8-0.9 1.6-0.5 0.9-0.9 1.7-0.3 0.9-0.7 1.8-0.4-2.5-0.9-5.1c-0.1-0.7-1.3-0.4-1.2 0.4q0.6 3 1.2 6l0.1 0.8q0 0.1 0 0.1 0 0.1 0 0.2 0 0 0 0.1 0.1 0 0.1 0.1l0.3 1.8 0.3 1.3 0.1 0.9c0 0 0 0.2 0.1 0.3q-0.1 0.1-0.2 0.2 0 0.1 0 0.2 0 0.2 0 0.3 0 0.1 0.1 0.2 0.1 0.1 0.1 0.1 0.1 0.1 0.1 0.1 0.1 0 0.2 0.1 0.1 0 0.1 0c1.2-0.2 0.8-1.3 0.6-2.1q-0.3-1.8-0.6-3.6l-0.1-0.2c1.2-2.7 2.2-5.7 4-8.1 0.5-0.6-0.4-1.4-0.9-0.8z"/>
	<path id="Layer" class="s2" d="m129.3 279.6l-1.7 3.7q-0.3-1.4-0.8-2.8c-0.2-0.7-1.4-0.4-1.2 0.3q0.5 1.4 0.8 2.8 0.4 1.5 0.6 2.9 0.3 1.5 0.4 2.9 0.1 1.5 0.1 2.9 0 0.3 0.2 0.5 0.2 0.1 0.4 0.1 0.3 0 0.5-0.1 0.1-0.2 0.1-0.5 0-0.8 0-1.7-0.1-0.9-0.2-1.8-0.1-0.9-0.2-1.8-0.1-0.9-0.3-1.7l2.4-5.1c0.3-0.7-0.8-1.3-1.1-0.6z"/>
	<path id="Layer" class="s4" d="m152.9 188.1q0.2 1 0.3 2.1 0.2 1 0.2 2.1 0.1 1 0.1 2.1 0 1-0.1 2.1c-0.1 0.8 1.1 0.7 1.2 0q0.1-1.1 0.1-2.2 0-1.1-0.1-2.2 0-1.1-0.2-2.2-0.1-1.1-0.4-2.1c-0.1-0.8-1.3-0.5-1.1 0.3z"/>
	<path id="Layer" class="s4" d="m153.2 215.8q0.1 0.9 0.2 1.7 0.1 0.9 0.2 1.8 0.1 0.8 0.1 1.7 0 0.9 0.1 1.8 0 0.2 0.1 0.4 0.2 0.1 0.5 0.2 0.2-0.1 0.4-0.2 0.2-0.2 0.2-0.4 0-1-0.1-1.9-0.1-0.9-0.1-1.8-0.1-0.9-0.2-1.8-0.1-0.9-0.2-1.8c-0.1-0.8-1.3-0.5-1.2 0.3z"/>
	<path id="Layer" class="s4" d="m153.4 240.7q0.1 0.6 0.2 1.3 0.1 0.6 0.2 1.2 0 0.7 0 1.3 0 0.7-0.1 1.3c0 0.8 1.2 0.8 1.3 0q0-0.7 0-1.3 0-0.7 0-1.4-0.1-0.7-0.2-1.4-0.1-0.7-0.3-1.3c-0.1-0.8-1.3-0.5-1.1 0.3z"/>
	<path id="Layer" class="s4" d="m154.1 260.7q0 1.2 0 2.3 0 1.1 0 2.2 0.1 1.1 0.2 2.2 0.1 1.1 0.2 2.2c0.1 0.8 1.3 0.8 1.2 0q-0.1-1.1-0.2-2.2-0.1-1.1-0.1-2.2-0.1-1.1-0.1-2.2 0-1.1 0-2.3c0.1-0.7-1.2-0.7-1.2 0z"/>
	<path id="Layer" class="s2" d="m169.7 89.8q-1.7 1-3.3 2.1-1.7 1.1-3.3 2.3-1.5 1.2-3.1 2.5-1.5 1.2-2.9 2.6-0.8-0.9-1.6-1.7-0.7-0.9-1.4-1.8-0.8-0.9-1.4-1.8-0.7-0.9-1.3-1.9-0.1-0.1-0.2-0.2-0.2-0.1-0.3-0.1-0.1 0-0.3 0-0.1 0.1-0.2 0.2-0.8 0.7-1.5 1.5-0.6 0.8-1.2 1.7-0.6 0.8-1.1 1.8-0.4 0.9-0.8 1.9-12.4-3.2-24.9-6.3c-0.8-0.1-1.1 1-0.4 1.2q12.8 3.1 25.5 6.4 0.1 0 0.3 0 0.1 0 0.2-0.1 0.1 0 0.2-0.1 0-0.1 0.1-0.2 0.3-0.9 0.7-1.8 0.4-0.9 0.9-1.7 0.5-0.8 1.1-1.5 0.6-0.8 1.3-1.4 0.6 0.9 1.3 1.8 0.7 1 1.4 1.9 0.8 0.9 1.5 1.7 0.8 0.9 1.6 1.8 0.1 0 0.2 0.1 0.1 0 0.2 0 0.2 0 0.3 0 0.1-0.1 0.2-0.1 1.4-1.4 3-2.7 1.5-1.3 3.1-2.5 1.6-1.3 3.3-2.4 1.7-1.1 3.4-2.1 0.2-0.2 0.3-0.4 0-0.2-0.1-0.4-0.1-0.3-0.3-0.3-0.3-0.1-0.5 0z"/>
	<path id="Layer" class="s2" d="m251.6 79v4.6q0 0.1 0 0.2 0 0.2 0.1 0.3 0 0.1 0.1 0.2 0 0.1 0.1 0.2-0.1 1.4-0.2 2.8-0.2 1.4-0.3 2.8-0.2 1.4-0.5 2.8-0.3 1.4-0.6 2.8-0.2 0.9-0.5 1.8-0.2 0.9-0.6 1.7-0.3 0.9-0.7 1.8-0.4 0.8-0.8 1.6-0.4 0.8-0.9 1.5-0.5 0.7-1.1 1.3-0.6 0.6-1.3 1.1-0.7 0.4-1.5 0.8-0.5 0.2-1 0.3-0.6 0.2-1.1 0.3-0.6 0.1-1.1 0.2-0.6 0.1-1.1 0.2l-4.8 0.8c-0.8 0.1-0.5 1.3 0.3 1.2l4.4-0.8q0.5-0.1 1-0.2 0.6-0.1 1.1-0.2 0.6-0.1 1.1-0.2 0.5-0.1 1-0.3 0.9-0.2 1.6-0.7 0.8-0.4 1.5-0.9 0.6-0.6 1.2-1.2 0.6-0.7 1-1.4c2.9-4.3 4-9.7 4.6-14.8q0.3-2.1 0.4-4.3 0.4 0.1 0.8 0 0.4-0.1 0.7-0.3 0.4-0.3 0.5-0.6 0.2-0.4 0.2-0.8v-4.6c0-0.5-0.2-0.9-0.5-1.3-0.4-0.3-0.8-0.5-1.3-0.5-0.4 0-0.9 0.2-1.2 0.5-0.4 0.4-0.6 0.8-0.6 1.3z"/>
	<path id="Layer" class="s2" d="m233.7 108.4l8.5-1.8c0.8-0.2 0.5-1.3-0.3-1.2l-8.5 1.9c-0.8 0.1-0.4 1.3 0.3 1.1z"/>
	<path id="Layer" class="s8" d="m201.9 53.3q-0.6 1.2-1.1 2.5-0.4 1.3-0.7 2.6-0.4 1.3-0.5 2.6-0.2 1.4-0.1 2.7 0 0.4 0.3 0.7 0.3 0.3 0.7 0.3 0.4 0 0.7-0.3 0.2-0.3 0.3-0.7-0.1-1.2 0.1-2.4 0.1-1.2 0.4-2.4 0.3-1.2 0.7-2.3 0.4-1.2 1-2.2c0.6-1.2-1.2-2.2-1.8-1.1z"/>
	<path id="Layer" class="s8" d="m205.2 64.5q-0.3 1.1-0.5 2.2-0.2 1.2-0.4 2.3-0.1 1.2-0.2 2.3-0.1 1.2-0.1 2.3 0 0.4 0.3 0.7 0.3 0.3 0.7 0.3 0.4 0 0.7-0.3 0.3-0.3 0.3-0.7 0-1 0.1-2.1 0.1-1.1 0.2-2.2 0.1-1.1 0.3-2.2 0.2-1 0.5-2.1c0.3-1.2-1.6-1.8-1.9-0.5z"/>
	<path id="Layer" class="s8" d="m200.9 80.7l-0.8 6.1c-0.1 0.5 0.5 1 1 1q0.2 0 0.4-0.1 0.2-0.1 0.3-0.2 0.2-0.2 0.2-0.4 0.1-0.1 0.1-0.3l0.8-6.1c0.1-0.5-0.5-1-1-1q-0.2 0-0.4 0.1-0.1 0.1-0.3 0.2-0.1 0.2-0.2 0.4-0.1 0.1-0.1 0.3z"/>
	<path id="Layer" class="s8" d="m212.2 58.8q0.3-0.8 0.8-1.5 0.5-0.8 1.2-1.4 0.6-0.6 1.4-1 0.7-0.5 1.6-0.8c1.2-0.4 0.6-2.3-0.6-1.9q-1 0.3-1.9 0.9-1 0.5-1.7 1.2-0.8 0.8-1.5 1.6-0.6 0.9-1 1.9-0.1 0.2-0.2 0.4 0 0.2 0.1 0.3 0 0.2 0.1 0.4 0.2 0.2 0.3 0.3 0.2 0.1 0.4 0.1 0.2 0 0.4 0 0.2-0.1 0.3-0.2 0.2-0.1 0.3-0.3z"/>
	<path id="Layer" class="s8" d="m208.7 50.2q0.5-0.6 1.2-1.2 0.6-0.5 1.3-1 0.8-0.4 1.5-0.8 0.8-0.3 1.6-0.6c1.2-0.4 0.7-2.3-0.5-1.9q-1 0.3-1.9 0.7-0.9 0.4-1.7 0.9-0.8 0.5-1.5 1.1-0.8 0.7-1.4 1.4c-0.9 1 0.5 2.4 1.4 1.4z"/>
	<path id="Layer" class="s8" d="m205.6 93.9q-0.5 6-0.4 12 0 0.5 0.3 0.7 0.3 0.3 0.7 0.3 0.4 0 0.7-0.3 0.3-0.2 0.3-0.7-0.1-6 0.4-12c0.1-1.3-1.9-1.3-2 0z"/>
	<path id="Layer" class="s8" d="m200.2 98.5l-0.9 11c-0.2 1.3 1.9 1.3 2 0l1-11c0.1-1.3-1.9-1.3-2.1 0z"/>
	<path id="Layer" class="s2" d="m110.6 232.2q-1.2 4.8-2.7 9.4-1.6 4.6-3.6 9.1-1.9 4.5-4.2 8.8-2.4 4.3-5 8.4-2.8 4.1-5.8 8 0 0-0.1 0 0 0 0 0 0 0 0 0 0 0 0 0c-5-15.5-6.4-31.8-8.5-47.9q-0.8-6.1-1.8-12.2 0.2-0.1 0.4-0.3 0.2-0.1 0.3-0.3 0.1-0.3 0.2-0.5 0.1-0.2 0-0.5v-0.3c0-0.5-0.2-0.9-0.5-1.3-0.3-0.3-0.8-0.5-1.3-0.5-0.4 0-0.9 0.2-1.2 0.5-0.4 0.4-0.6 0.8-0.6 1.3v0.3q0 0.3 0.1 0.6 0.1 0.3 0.3 0.6 0.2 0.2 0.5 0.4 0.3 0.1 0.6 0.2c2.7 15.9 3.6 32.1 7 47.9q0.4 1.7 0.8 3.4 0.4 1.7 0.9 3.4 0.4 1.7 0.9 3.4 0.5 1.7 1.1 3.3 0 0.1 0 0.1-0.7 7.9-0.9 15.8 0 0.2 0.2 0.4 0.2 0.2 0.4 0.2 0.3 0 0.5-0.2 0.1-0.2 0.1-0.4 0.2-7.9 0.9-15.9 3.1-3.8 5.8-7.9 2.7-4 5.1-8.3 2.4-4.3 4.4-8.8 2-4.4 3.6-9.1 1.9-5.3 3.3-10.8 0-0.2-0.1-0.4-0.1-0.2-0.3-0.3-0.3-0.1-0.5 0.1-0.2 0.1-0.3 0.3z"/>
</svg>